<?xml version="1.0" standalone="no"?>
<!DOCTYPE svg PUBLIC "-//W3C//DTD SVG 1.1//EN" "http://www.w3.org/Graphics/SVG/1.1/DTD/svg11.dtd" >
<svg xmlns="http://www.w3.org/2000/svg">
<metadata>
This is a custom SVG webfont generated by Font Squirrel.
Copyright   : Copyright c 1988 1990 Adobe Systems Incorporated  All Rights ReservedFrutiger is a registered trademark of Linotype AG andor its subsidiaries
</metadata>
<defs>
<font id="webfontu9pfibSY" horiz-adv-x="1138" >
<font-face units-per-em="2048" ascent="1638" descent="-410" />
<missing-glyph horiz-adv-x="569" />
<glyph unicode=" "  horiz-adv-x="569" />
<glyph unicode="&#x09;" horiz-adv-x="569" />
<glyph unicode="&#xa0;" horiz-adv-x="569" />
<glyph unicode="!" horiz-adv-x="796" d="M281 420l-39 1010h315l-43 -1010h-233zM256 0v287h287v-287h-287z" />
<glyph unicode="&#x22;" horiz-adv-x="985" d="M555 918v512h250v-512h-250zM180 918v512h250v-512h-250z" />
<glyph unicode="#" d="M1012 584v-164h-189l-59 -420h-180l59 420h-209l-61 -420h-180l59 420h-184v164h206l35 262h-180v164h205l57 420h182l-57 -420h209l57 420h181l-58 -420h166v-164h-190l-35 -262h166zM700 846h-208l-35 -262h209z" />
<glyph unicode="$" d="M530 889v319q-113 -51 -112 -178q-1 -84 112 -141zM627 543v-314q119 51 118 156q1 99 -118 158zM530 1602h97v-148q182 0 334 -51l-27 -236q-141 61 -291 62q-10 0 -16 -2v-379q184 -74 247 -115q170 -115 170 -325q0 -190 -114.5 -296t-302.5 -128v-168h-97v161 q-8 -2 -22 -2q-74 0 -140.5 8.5t-96.5 15.5l-130 32l27 258q162 -88 324 -88q25 0 38 4v383q-190 74 -258 123q-154 111 -153 307q0 197 115.5 303t295.5 129v152z" />
<glyph unicode="%" horiz-adv-x="2048" d="M1493 139q127 0 127 213t-127 213q-74 0 -102.5 -64.5t-28.5 -148.5t28.5 -148.5t102.5 -64.5zM502 -45l884 1520h168l-884 -1520h-168zM561 700q-164 0 -254 99.5t-90 277.5t90 277.5t254 99.5t252 -99.5t88 -277.5t-88 -277.5t-252 -99.5zM561 864q127 0 127 213 t-127 213q-74 0 -102.5 -64.5t-28.5 -148.5t28.5 -148.5t102.5 -64.5zM1493 -25q-164 0 -254 99.5t-90 277.5t90 277.5t254 99.5t252 -99.5t88 -277.5t-88 -277.5t-252 -99.5z" />
<glyph unicode="&#x26;" horiz-adv-x="1478" d="M889 274l-318 355q-174 -90 -174 -230q0 -92 70 -151.5t172 -59.5q162 0 250 86zM635 899q68 35 127 92.5t59 114.5q0 72 -46 109.5t-111 37.5q-68 0 -116 -38.5t-48 -112.5q0 -16 4 -32.5t13 -33.5l18 -29q8 -13 24 -31l25 -26l26 -26zM795 752l262 -287q82 94 90 311 h250q-12 -287 -183 -489l256 -287h-352l-96 127q-150 -152 -389 -152q-221 0 -365.5 111t-144.5 305q0 135 68.5 229.5t232.5 163.5q-76 72 -105.5 104t-61.5 97.5t-32 142.5q0 152 133.5 239t301 87t289.5 -81t122 -243q0 -135 -69.5 -216.5t-206.5 -161.5z" />
<glyph unicode="'" horiz-adv-x="569" d="M160 918v512h250v-512h-250z" />
<glyph unicode="(" horiz-adv-x="681" d="M408 1548h260q-150 -238 -223.5 -445.5t-73.5 -471.5q0 -449 297 -918h-260q-328 446 -328 918q0 268 81 479t247 438z" />
<glyph unicode=")" horiz-adv-x="681" d="M272 -287h-258q297 475 297 918q0 262 -73.5 470t-223.5 447h258q166 -231 248 -441t82 -476q0 -465 -330 -918z" />
<glyph unicode="*" d="M991 1036l-284 -63l196 -219l-188 -136l-146 254l-155 -254l-187 136l201 219l-281 63l68 213l272 -116l-32 297h233l-35 -295l273 114z" />
<glyph unicode="+" horiz-adv-x="1228" d="M508 625v411h213v-411h414v-213h-414v-412h-213v412h-414v213h414z" />
<glyph unicode="," horiz-adv-x="569" d="M47 -225l131 512h297l-186 -512h-242z" />
<glyph unicode="-" horiz-adv-x="681" d="M610 438h-538v226h538v-226z" />
<glyph unicode="." horiz-adv-x="569" d="M141 0v287h287v-287h-287z" />
<glyph unicode="/" horiz-adv-x="796" d="M43 -25l500 1479h213l-500 -1479h-213z" />
<glyph unicode="0" d="M567 188q45 0 80 20.5t56.5 49.5t38 80t23.5 90t11 102.5t4 93.5v87q0 80 -1 129t-12 135t-31.5 136t-63.5 90t-105 40q-49 0 -87 -24.5t-59.5 -73.5t-35.5 -95.5t-19.5 -119t-6.5 -112.5t-1 -105v-87q0 -30 4.5 -93.5t11.5 -102.5t22.5 -90t37 -80t56 -49.5t77.5 -20.5z M567 -25q-496 0 -495 736q0 145 23.5 269t77.5 234.5t154.5 175t239.5 64.5q121 0 212 -46t144.5 -118.5t87 -175t45 -198t11.5 -205.5q0 -139 -21.5 -257t-72.5 -233t-155 -180.5t-251 -65.5z" />
<glyph unicode="1" d="M162 1094l418 336h254v-1430h-287v1104l-242 -197z" />
<glyph unicode="2" d="M1034 0h-950v240q6 6 110.5 102t169 162.5t154.5 170t137 196t47 165.5q0 92 -68.5 142.5t-164.5 50.5q-154 0 -330 -115l-22 238q201 102 424 102q209 0 328.5 -106.5t119.5 -311.5q0 -100 -39 -200.5t-131 -215t-145 -171t-180 -181.5l-43 -43h583v-225z" />
<glyph unicode="3" d="M92 23l17 243q166 -66 317 -65q109 0 205 52t96 150q0 223 -315 224h-140v225h131q147 0 232.5 48t85.5 140q0 188 -246 189q-166 0 -321 -76l-17 229q182 72 400 72q76 0 149.5 -15.5t150 -52t124 -113.5t47.5 -186q0 -242 -267 -342v-4q133 -18 203 -111t70 -229 q0 -98 -35 -174.5t-89 -123t-128 -76t-145.5 -41t-149.5 -11.5q-211 1 -375 48z" />
<glyph unicode="4" d="M291 510h358v620h-4zM33 297v231l534 902h357v-920h182v-213h-182v-297h-275v297h-616z" />
<glyph unicode="5" d="M1004 1430v-213h-551l-7 -306q76 14 132 15q82 0 157.5 -21.5t146 -71t113.5 -145.5t43 -227q0 -211 -145 -348.5t-412 -137.5q-162 0 -334 41l7 256q174 -72 292 -71q127 0 216.5 62.5t89.5 189.5q0 129 -94.5 188t-233.5 59q-133 0 -256 -38l14 768h822z" />
<glyph unicode="6" d="M979 1403l-37 -232q-133 57 -250 57.5t-195.5 -68t-109.5 -163t-35 -211.5l4 -4q98 143 277 144q199 0 308.5 -118t109.5 -319q0 -240 -120 -377t-356 -137q-485 0 -485 666q0 123 16.5 233.5t58.5 219t106.5 186.5t169 126t237.5 48q156 0 301 -51zM569 713 q-98 0 -145 -77t-47 -194q0 -111 49 -182.5t149 -71.5q94 0 141.5 75t47.5 181q0 115 -49.5 192t-145.5 77z" />
<glyph unicode="7" d="M102 1204v226h922v-238l-508 -1192h-311l530 1204h-633z" />
<glyph unicode="8" d="M596 854q61 23 110.5 83t49.5 124q0 80 -48.5 130t-127.5 50q-84 0 -146.5 -45t-62.5 -127q0 -43 19.5 -79t57 -61.5t69.5 -42t79 -32.5zM793 768v2v-4q274 -129 274 -375q0 -207 -134 -311.5t-357.5 -104.5t-363.5 102.5t-140 309.5q0 227 262 354v4 q-111 49 -174.5 135.5t-63.5 196.5q0 184 125 280.5t330 96.5t342 -87t137 -257q0 -102 -62 -199.5t-175 -142.5zM541 627q-182 -88 -183 -236q0 -88 64.5 -145.5t153 -57.5t146.5 52.5t58 138.5q1 170 -239 248z" />
<glyph unicode="9" d="M162 27l37 231q133 -57 249.5 -57t195.5 68.5t109.5 162.5t34.5 211l-4 4q-96 -143 -276 -143q-199 0 -308.5 117.5t-109.5 318.5q0 240 120 377t355 137q485 0 486 -666q0 -123 -16.5 -233.5t-58.5 -219t-106.5 -186t-169 -126t-237.5 -48.5q-156 1 -301 52zM571 717 q98 0 145.5 76.5t47.5 193.5q0 111 -49 182.5t-150 71.5q-94 0 -141 -74.5t-47 -181.5q0 -115 49 -191.5t145 -76.5z" />
<glyph unicode=":" horiz-adv-x="569" d="M141 768v287h287v-287h-287zM141 0v287h287v-287h-287z" />
<glyph unicode=";" horiz-adv-x="569" d="M47 -225l131 512h297l-186 -512h-242zM141 768v287h287v-287h-287z" />
<glyph unicode="&#x3c;" horiz-adv-x="1228" d="M1135 193v-209l-1041 446v176l1041 447v-209l-764 -326z" />
<glyph unicode="=" horiz-adv-x="1228" d="M1135 848v-213h-1041v213h1041zM1135 401v-213h-1041v213h1041z" />
<glyph unicode="&#x3e;" horiz-adv-x="1228" d="M94 193l764 325l-764 326v209l1041 -447v-176l-1041 -446v209z" />
<glyph unicode="?" horiz-adv-x="1024" d="M125 1159l-23 227q227 68 406 68q125 0 226.5 -36t171 -121t69.5 -210q0 -78 -38 -151.5t-92 -131.5l-107 -116q-52 -57 -84.5 -126.5t-26.5 -143.5h-252q0 215 149 385q12 12 37 39.5l37 40t29.5 37t26 42t15.5 42t7 51.5q0 94 -68.5 140t-167.5 46q-137 0 -315 -82z M358 0v287h287v-287h-287z" />
<glyph unicode="@" horiz-adv-x="1638" d="M850 913q-96 0 -162.5 -81.5t-66.5 -180.5q0 -74 40.5 -121t112.5 -47q94 0 160.5 83t66.5 184q0 74 -41.5 118.5t-109.5 44.5zM1292 293h174q-215 -317 -647 -318q-137 0 -267 47.5t-237.5 136.5t-173 233.5t-65.5 322.5q0 309 226 524t566 215q129 0 249 -36 t221.5 -106.5t163 -189t61.5 -270.5q0 -147 -60.5 -264t-148.5 -179.5t-169 -94t-138 -31.5q-45 0 -77 27.5t-34 78.5h-4q-94 -106 -207 -106q-131 0 -224 96t-93 242q0 203 123.5 348t297.5 145q150 0 238 -131l25 98h172l-113 -497q-14 -53 -14 -70q0 -31 30 -31 q88 0 160 93.5t72 269.5q0 119 -47 205t-128 131t-169 64.5t-187 19.5q-250 0 -414.5 -164t-164.5 -387q0 -238 150.5 -394.5t379.5 -156.5q319 0 473 129z" />
<glyph unicode="A" horiz-adv-x="1478" d="M940 553l-207 590h-4l-207 -590h418zM18 0l557 1430h324l561 -1430h-317l-123 328h-580l-125 -328h-297z" />
<glyph unicode="B" horiz-adv-x="1251" d="M453 639v-414h135q295 0 295 199q0 68 -24.5 113t-71 65.5t-92.5 28.5t-107 8h-135zM453 1204v-352h116q270 0 271 174q0 47 -17.5 82t-42 53.5t-64.5 28.5t-73 12t-80 2h-110zM166 0v1430h500q63 0 119.5 -7.5t121 -32t111.5 -63.5t77.5 -106.5t30.5 -157.5 q0 -125 -77.5 -211t-206.5 -109v-4q145 -14 236 -104t91 -221q0 -127 -51 -215t-135 -128t-159.5 -55.5t-157.5 -15.5h-500z" />
<glyph unicode="C" horiz-adv-x="1251" d="M1194 260l12 -240q-190 -45 -325 -45q-360 0 -572.5 181.5t-212.5 533.5q0 365 209 564.5t576 199.5q172 0 323 -59l-20 -242q-133 76 -310 76q-217 0 -348 -146.5t-131 -371.5q0 -223 131 -366.5t355 -143.5q198 0 313 59z" />
<glyph unicode="D" horiz-adv-x="1478" d="M166 0v1430h391q825 0 825 -715t-825 -715h-391zM453 1204v-979h159q190 0 330.5 133.5t140.5 356.5t-140 356t-331 133h-159z" />
<glyph unicode="E" d="M166 0v1430h844v-226h-557v-352h510v-225h-510v-402h561v-225h-848z" />
<glyph unicode="F" horiz-adv-x="1024" d="M166 0v1430h795v-226h-508v-352h483v-225h-483v-627h-287z" />
<glyph unicode="G" horiz-adv-x="1478" d="M1300 1395l-18 -242q-164 76 -369 76q-244 0 -381 -145.5t-137 -372.5q0 -223 131 -366.5t355 -143.5q106 0 188 20v373h-303v225h577v-770q-272 -74 -462 -74q-360 0 -572.5 181.5t-212.5 533.5q0 365 209 564.5t576 199.5q220 0 419 -59z" />
<glyph unicode="H" horiz-adv-x="1478" d="M166 0v1430h287v-578h573v578h287v-1430h-287v627h-573v-627h-287z" />
<glyph unicode="I" horiz-adv-x="569" d="M141 0v1430h287v-1430h-287z" />
<glyph unicode="J" horiz-adv-x="796" d="M45 2v248q68 -25 137 -25q66 0 107 22.5t56 67.5t19.5 77t4.5 85v953h286v-1090q0 -137 -96 -251t-295 -114q-115 0 -219 27z" />
<glyph unicode="K" horiz-adv-x="1366" d="M166 0v1430h287v-615l516 615h352l-588 -674l613 -756h-375l-514 664h-4v-664h-287z" />
<glyph unicode="L" horiz-adv-x="1024" d="M166 0v1430h287v-1205h555v-225h-842z" />
<glyph unicode="M" horiz-adv-x="1933" d="M166 0v1430h459l340 -1084h4l340 1084h458v-1430h-274v1180h-4l-385 -1180h-275l-385 1180l-4 -4v-1176h-274z" />
<glyph unicode="N" horiz-adv-x="1478" d="M152 0v1430h352l545 -1070h4v1070h274v-1430h-350l-547 1069h-4v-1069h-274z" />
<glyph unicode="O" horiz-adv-x="1593" d="M96 719q0 336 183.5 535.5t517.5 199.5q330 0 515 -201.5t185 -533.5q0 -334 -184.5 -539t-515.5 -205q-336 0 -518.5 203t-182.5 541zM395 719q0 -137 38 -250t131 -190.5t232.5 -77.5t232.5 77.5t131 190.5t38 250q0 211 -101.5 360.5t-300 149.5t-300 -149.5 t-101.5 -360.5z" />
<glyph unicode="P" d="M428 1204v-436h100q272 0 273 213q0 117 -76 170t-197 53h-100zM141 0v1430h363q596 0 596 -433q0 -236 -150.5 -345t-400.5 -109h-121v-543h-287z" />
<glyph unicode="Q" horiz-adv-x="1593" d="M1460 -270h-346l-250 250q-20 -4 -67 -5q-336 0 -518.5 203t-182.5 541q0 336 183.5 535.5t517.5 199.5q330 0 515 -201.5t185 -533.5q0 -233 -93 -408.5t-267 -259.5zM395 719q0 -137 38 -250t131 -190.5t232.5 -77.5t232.5 77.5t131 190.5t38 250q0 211 -101.5 360.5 t-300 149.5t-300 -149.5t-101.5 -360.5z" />
<glyph unicode="R" horiz-adv-x="1251" d="M428 1204v-385h94q61 0 108.5 6t95.5 25.5t73.5 61.5t25.5 106q0 61 -25.5 101t-74.5 57.5t-93 22.5t-110 5h-94zM141 0v1430h310h22q76 0 116 -1.5t111.5 -5.5t112.5 -14t97.5 -27.5t89 -46t64.5 -68.5t46 -96.5t14 -128.5q0 -129 -79.5 -221t-215.5 -110v-4 q88 -6 152 -148l229 -559h-319l-172 446q-33 84 -73 116t-126 32h-92v-594h-287z" />
<glyph unicode="S" d="M961 1403l-27 -236q-141 61 -291 62q-90 0 -157.5 -46t-67.5 -153q0 -68 64.5 -113t156.5 -77.5t184 -75.5t156.5 -133t64.5 -223q0 -221 -150.5 -327t-385.5 -106q-74 0 -140.5 8.5t-96.5 15.5l-130 32l27 258q162 -88 324 -88q94 0 173.5 48t79.5 136q0 74 -64.5 123 t-156.5 83t-184 77t-156.5 131t-64.5 219q0 223 144.5 329.5t354.5 106.5q189 0 343 -51z" />
<glyph unicode="T" d="M426 0v1204h-410v226h1106v-226h-409v-1204h-287z" />
<glyph unicode="U" horiz-adv-x="1478" d="M156 516v914h286v-826q0 -403 297 -403t297 403v826h287v-914q0 -541 -583.5 -541t-583.5 541z" />
<glyph unicode="V" horiz-adv-x="1366" d="M512 0l-492 1430h308l366 -1123h4l363 1123h285l-482 -1430h-352z" />
<glyph unicode="W" horiz-adv-x="2048" d="M399 0l-379 1430h302l266 -1143h4l244 1143h389l252 -1143h4l268 1143h279l-373 -1430h-369l-258 1143h-4l-254 -1143h-371z" />
<glyph unicode="X" horiz-adv-x="1366" d="M20 0l469 743l-426 687h332l299 -510l305 510h308l-430 -687l469 -743h-338l-330 557l-334 -557h-324z" />
<glyph unicode="Y" horiz-adv-x="1366" d="M545 0v565l-522 865h335l338 -601l344 601h303l-512 -865v-565h-286z" />
<glyph unicode="Z" d="M74 0v233l671 971h-645v226h951v-234l-678 -971h692v-225h-991z" />
<glyph unicode="[" horiz-adv-x="681" d="M147 -287v1835h459v-200h-196v-1434h196v-201h-459z" />
<glyph unicode="\" horiz-adv-x="796" d="M541 -25l-500 1479h213l500 -1479h-213z" />
<glyph unicode="]" horiz-adv-x="681" d="M76 1548h459v-1835h-459v201h196v1434h-196v200z" />
<glyph unicode="^" horiz-adv-x="1228" d="M348 641h-213l383 789h193l383 -789h-213l-267 573z" />
<glyph unicode="_" horiz-adv-x="1024" d="M1024 -256h-1024v102h1024v-102z" />
<glyph unicode="`" horiz-adv-x="569" d="M340 1497l170 -299h-170l-281 299h281z" />
<glyph unicode="a" d="M197 764l-9 235q172 80 367 80q240 0 347.5 -105.5t107.5 -338.5v-135q0 -109 4 -264q2 -109 12 -236h-242q-4 20 -12 158h-4q-47 -84 -137 -133.5t-189 -49.5q-150 0 -259 85t-109 229q0 213 180 301q125 61 354 61h152q0 125 -56.5 176.5t-181.5 51.5q-173 0 -325 -115 zM336 305q0 -66 48 -97.5t126 -31.5q121 0 192 94q57 76 58 217h-119q-305 0 -305 -182z" />
<glyph unicode="b" horiz-adv-x="1251" d="M418 530q0 -133 58.5 -237.5t182.5 -104.5q84 0 139.5 57.5t74 130.5t18.5 154q0 80 -18.5 151t-71.5 128t-137 57q-121 0 -183.5 -103.5t-62.5 -232.5zM141 0v1536h275v-616h4q121 160 315 159q227 0 335 -154.5t108 -394.5q0 -154 -41 -273.5t-144.5 -200.5t-257.5 -81 q-215 0 -323 154h-4v-129h-267z" />
<glyph unicode="c" horiz-adv-x="909" d="M850 1044l-25 -217q-84 39 -186 39q-127 0 -203 -92t-76 -242q0 -154 73 -249t212 -95q98 0 211 50l12 -228q-113 -35 -274 -35q-252 0 -386 154t-134 403q0 238 135 392.5t375 154.5q149 0 266 -35z" />
<glyph unicode="d" horiz-adv-x="1251" d="M360 530q0 -82 18.5 -154.5t74 -130t139.5 -57.5q125 0 183.5 104.5t58.5 237.5q0 129 -62.5 232.5t-183.5 103.5q-84 0 -137.5 -57t-72 -128t-18.5 -151zM844 0v119h-4q-115 -143 -324 -144q-154 0 -257 81t-144 201t-41 273q0 240 107.5 394.5t334.5 154.5 q195 0 315 -147h5v604h274v-1536h-266z" />
<glyph unicode="e" d="M336 631h467q-6 111 -60.5 179.5t-162.5 68.5q-111 0 -172.5 -67.5t-71.5 -180.5zM987 283v-224q-152 -84 -362 -84q-262 0 -406.5 143.5t-144.5 403.5q0 242 127 399.5t362 157.5q143 0 242.5 -46t155 -135t80 -199.5t24.5 -256.5h-729q8 -125 90 -195.5t211 -70.5 q160 1 350 107z" />
<glyph unicode="f" horiz-adv-x="796" d="M242 0v854h-203v201h203v147q0 162 88 260.5t248 98.5q102 0 200 -23l-22 -227q-63 37 -119 37q-121 0 -121 -162v-131h240v-201h-240v-854h-274z" />
<glyph unicode="g" horiz-adv-x="1251" d="M594 213q123 0 182.5 91t59.5 234.5t-57.5 235.5t-172.5 92q-129 0 -187.5 -97t-58.5 -237q0 -121 61.5 -220t172.5 -99zM848 1055h262v-953q0 -557 -557 -557q-195 0 -365 72l23 233q68 -37 157 -64.5t150 -27.5q88 0 149.5 27t93.5 63.5t50 98t21.5 107.5t3.5 114h-5 q-41 -72 -129 -120t-198 -48q-219 0 -324.5 150.5t-105.5 381.5q0 135 44 255t148.5 206t253.5 86q219 0 324 -168h4v144z" />
<glyph unicode="h" horiz-adv-x="1251" d="M141 0v1536h275v-625h4q115 168 332 168q180 0 269 -112.5t89 -300.5v-666h-274v563q0 51 -1 82t-11.5 79t-28 74.5t-52 47t-86.5 20.5q-70 0 -121 -34.5t-75.5 -91t-34.5 -112t-10 -112.5v-516h-275z" />
<glyph unicode="i" horiz-adv-x="569" d="M147 0v1055h275v-1055h-275zM147 1247v262h275v-262h-275z" />
<glyph unicode="j" horiz-adv-x="569" d="M-31 -438l11 196q111 6 139 42t28 159v1096h275v-1133q0 -51 -6 -97t-26.5 -99.5t-54.5 -91t-93.5 -63.5t-137.5 -26q-80 1 -135 17zM147 1247v262h275v-262h-275z" />
<glyph unicode="k" d="M147 0v1536h275v-903h4l328 422h323l-393 -471l442 -584h-348l-352 512h-4v-512h-275z" />
<glyph unicode="l" horiz-adv-x="569" d="M147 0v1536h275v-1536h-275z" />
<glyph unicode="m" horiz-adv-x="1820" d="M137 0v1055h256v-148h4q115 172 314 172q227 0 311 -186q45 90 136 138t194 48q182 0 258 -109.5t76 -303.5v-666h-275v629q0 41 -1 63.5t-9 61.5t-23.5 59.5t-47.5 36.5t-77 16q-205 0 -204 -354v-512h-275v629q0 41 -1 63.5t-9 61.5t-23.5 59.5t-47 36.5t-77.5 16 q-205 0 -204 -354v-512h-275z" />
<glyph unicode="n" horiz-adv-x="1251" d="M141 0v1055h260v-144h5q119 168 346 168q180 0 269 -112.5t89 -300.5v-666h-274v563q0 51 -1 82t-11.5 79t-28 74.5t-52 47t-86.5 20.5q-70 0 -121 -34.5t-75.5 -91t-34.5 -112t-10 -112.5v-516h-275z" />
<glyph unicode="o" horiz-adv-x="1251" d="M74 520q0 256 155.5 407.5t395 151.5t396.5 -151.5t157 -407.5q0 -236 -148.5 -390.5t-404.5 -154.5q-254 0 -402.5 154.5t-148.5 390.5zM360 553q0 -154 60.5 -259.5t204.5 -105.5q76 0 130 32t82.5 86t41 114.5t12.5 132.5q0 131 -69.5 222t-196.5 91t-196 -92 t-69 -221z" />
<glyph unicode="p" horiz-adv-x="1251" d="M141 -430v1485h262v-150h5q104 174 327 174q227 0 335 -154.5t108 -394.5q0 -113 -25 -209t-76 -175.5t-140 -125t-208 -45.5q-94 0 -168 32t-141 114h-4v-551h-275zM664 866q-121 0 -183.5 -103.5t-62.5 -232.5q0 -133 58.5 -237.5t182.5 -104.5q84 0 139.5 57.5 t74 130.5t18.5 154q0 80 -18.5 151t-71.5 128t-137 57z" />
<glyph unicode="q" horiz-adv-x="1251" d="M836 -430v551h-5q-68 -82 -141.5 -114t-167.5 -32q-119 0 -208 45.5t-140 125t-75.5 176t-24.5 208.5q0 240 108.5 394.5t339.5 154.5q217 0 322 -174h4v150h262v-1485h-274zM588 866q-84 0 -137.5 -57t-72 -128t-18.5 -151q0 -82 18.5 -154.5t74 -130t139.5 -57.5 q125 0 183.5 104.5t58.5 237.5q0 129 -62.5 232.5t-183.5 103.5z" />
<glyph unicode="r" horiz-adv-x="796" d="M147 0v1055h244v-240h4q10 86 93 175t196 89q55 0 84 -8v-276q-39 23 -123 22q-53 0 -93 -19.5t-63.5 -59.5t-38 -77.5t-20.5 -96t-7 -91.5t-1 -86v-387h-275z" />
<glyph unicode="s" horiz-adv-x="909" d="M786 1040l-18 -206q-131 45 -246 45q-66 0 -114 -28t-48 -89q0 -45 49.5 -72.5t119 -47t140 -49.5t120 -98.5t49.5 -175.5q0 -172 -128 -258t-315 -86q-141 0 -311 45l16 226q139 -70 271 -70q68 0 124 30t56 99q0 47 -36 78t-88 44t-114.5 35.5t-115 49.5t-88 88.5 t-35.5 151.5q0 162 119.5 244.5t293.5 82.5q117 0 299 -39z" />
<glyph unicode="t" horiz-adv-x="796" d="M231 317v537h-202v201h202v211l275 88v-299h244v-201h-244v-492q0 -174 129 -174q80 0 125 29l8 -217q-86 -25 -203 -25q-160 0 -247 91t-87 251z" />
<glyph unicode="u" horiz-adv-x="1251" d="M1110 1055v-1055h-260v143h-4q-137 -168 -346 -168q-180 0 -269.5 113t-89.5 301v666h275v-563q0 -51 1 -82t11 -79t27.5 -75t52.5 -47.5t86 -20.5q70 0 121 35t75.5 91.5t35 111.5t10.5 113v516h274z" />
<glyph unicode="v" d="M416 0l-391 1055h294l263 -768h4l254 768h274l-389 -1055h-309z" />
<glyph unicode="w" horiz-adv-x="1820" d="M379 0l-356 1055h290l234 -781h4l213 781h319l230 -781h4l219 781h262l-323 -1055h-324l-229 805h-4l-226 -805h-313z" />
<glyph unicode="x" d="M381 553l-326 502h324l207 -344l202 344h291l-315 -502l356 -553h-327l-236 393l-238 -393h-301z" />
<glyph unicode="y" d="M326 1055l254 -770h4l254 770h278l-395 -1047l-19 -49l-40 -107q-14 -36 -43 -94.5t-56.5 -88t-68.5 -62.5t-93.5 -47.5t-117.5 -14.5q-96 0 -195 29l18 203q53 -18 142 -19q82 0 130 51.5t48 137.5l-403 1108h303z" />
<glyph unicode="z" horiz-adv-x="1024" d="M96 842v213h836v-226l-524 -616h542v-213h-876v223l534 619h-512z" />
<glyph unicode="{" horiz-adv-x="681" d="M37 543v176q68 0 118 45t50 145v363q0 133 90 204.5t213 71.5h154v-164h-93q-63 0 -82.5 -35.5t-19.5 -113.5v-354q0 -68 -22.5 -118t-60.5 -75.5t-73 -38t-73 -16.5v-4q229 -20 229 -262v-340q0 -80 19.5 -115t82.5 -35h93v-164h-154q-125 0 -214 72t-89 205v348 q0 109 -50 157t-118 48z" />
<glyph unicode="|" horiz-adv-x="454" d="M121 -25v1561h213v-1561h-213z" />
<glyph unicode="}" horiz-adv-x="681" d="M645 719v-176q-68 0 -118 -48.5t-50 -156.5v-348q0 -135 -88 -206t-215 -71h-154v164h93q63 0 82.5 35t19.5 115v340q0 242 229 262v4q-39 4 -73.5 16.5t-72.5 38t-60.5 75.5t-22.5 118v354q0 78 -19.5 113.5t-82.5 35.5h-93v164h154q127 0 215 -70.5t88 -205.5v-363 q0 -100 50 -145t118 -45z" />
<glyph unicode="~" horiz-adv-x="1228" d="M215 336l-74 180q94 180 248 180q109 0 240 -69q6 -2 35 -17l36 -18q8 -4 33 -14.5t38 -13.5t33.5 -7t39.5 -4q33 0 66.5 24.5t53 50t50.5 72.5l73 -180q-106 -180 -235 -180q-98 0 -238 72q-135 72 -223 71q-108 0 -176 -147z" />
<glyph unicode="&#xa1;" horiz-adv-x="796" d="M240 -375l43 1010h227l45 -1010h-315zM252 768v287h287v-287h-287z" />
<glyph unicode="&#xa2;" d="M528 297l174 569q-111 -14 -175 -105t-64 -229q-1 -145 65 -235zM821 1245h119l-57 -186q25 -2 69 -15l-24 -217q-53 25 -107 33l-198 -645q51 -27 125 -27q98 0 210 50l13 -228q-113 -35 -275 -35q-84 0 -143 17l-55 -176h-119l65 213q-131 66 -199.5 196.5t-68.5 306.5 q0 238 135 392.5t375 154.5q57 0 82 -4z" />
<glyph unicode="&#xa3;" d="M111 0v213h180v449h-156v163h156v172q0 203 141 330t350 127q150 0 267 -35l-15 -225q-127 35 -198 35q-127 0 -192.5 -77t-65.5 -189v-138h301v-163h-301v-449h456v-213h-923z" />
<glyph unicode="&#xa4;" d="M981 1251l121 -121l-119 -118q94 -131 94 -291q0 -158 -94 -295l119 -119l-121 -121l-119 119q-135 -94 -292.5 -94t-293.5 94l-118 -119l-121 121l119 119q-94 133 -95 293q0 158 95 293l-119 118l121 121l118 -118q131 94 293 94q158 0 293 -94zM287 719 q0 -121 83 -208t199.5 -87t199.5 87t83 208t-83 208t-199.5 87t-199.5 -87t-83 -208z" />
<glyph unicode="&#xa5;" d="M1161 1430l-354 -674h201v-164h-287l-14 -27v-100h301v-164h-301v-301h-275v301h-301v164h301v100l-16 27h-285v164h205l-356 674h288l310 -631l315 631h268z" />
<glyph unicode="&#xa6;" horiz-adv-x="454" d="M121 -25v564h213v-564h-213zM121 973v563h213v-563h-213z" />
<glyph unicode="&#xa7;" d="M348 633q0 -59 65.5 -103.5t170 -82t135.5 -56.5q74 63 74 154q0 51 -38 88t-83 55.5t-125 46t-125 49.5q-74 -53 -74 -151zM924 1413l-23 -223q-135 51 -293 51q-197 0 -196 -139q-2 -57 58 -97t147.5 -69t175.5 -64.5t150.5 -107.5t62.5 -176q0 -82 -40 -152.5 t-112 -109.5q139 -82 139 -234q0 -172 -136 -271.5t-316 -99.5q-137 0 -379 60l18 233q195 -80 344 -80q207 0 207 142q0 57 -61.5 97t-148.5 69.5t-175 65.5t-149.5 106.5t-61.5 169.5q0 182 158 276q-143 98 -143 244q0 115 68.5 196.5t166.5 117.5t211 36q111 0 328 -41z " />
<glyph unicode="&#xa8;" horiz-adv-x="569" d="M377 1485h237v-238h-237v238zM193 1247h-238v238h238v-238z" />
<glyph unicode="&#xa9;" horiz-adv-x="1638" d="M1346 715q0 252 -152 413.5t-375 161.5q-225 0 -375.5 -161.5t-150.5 -413.5q0 -254 150.5 -415t375.5 -161q223 0 375 162t152 414zM1036 596h170q-23 -145 -122 -228t-236 -83q-186 0 -302 123.5t-116 312.5q0 190 111.5 313t302.5 123q141 0 238.5 -80t117.5 -227 h-164q-14 70 -66 106.5t-126 36.5q-100 0 -156.5 -73.5t-56.5 -196.5q0 -117 60.5 -195.5t156.5 -78.5q78 0 129 38.5t59 108.5zM80 715q0 305 217 522t522 217t522.5 -217t217.5 -522t-217.5 -522.5t-522.5 -217.5t-522 217.5t-217 522.5z" />
<glyph unicode="&#xaa;" horiz-adv-x="739" d="M682 803h-172l-6 86h-4q-43 -102 -193 -103q-98 0 -174 44t-76 137q0 74 33 122t91.5 69.5t112.5 29.5t126 8h76q0 78 -37 106.5t-113 28.5q-111 0 -215 -63v135q100 51 246 51q156 0 225.5 -63.5t69.5 -214.5q0 -234 10 -373zM233 977q0 -35 34 -51.5t73 -16.5 q74 0 116 50.5t42 125.5h-62q-41 0 -66.5 -2t-62.5 -11t-55.5 -32.5t-18.5 -62.5z" />
<glyph unicode="&#xab;" d="M557 551l242 420h258l-226 -420l226 -420h-258zM100 551l242 420h258l-225 -420l225 -420h-258z" />
<glyph unicode="&#xac;" horiz-adv-x="1228" d="M922 221v414h-828v213h1041v-627h-213z" />
<glyph unicode="&#xad;" horiz-adv-x="681" d="M610 438h-538v226h538v-226z" />
<glyph unicode="&#xae;" horiz-adv-x="1638" d="M80 715q0 305 217 522t522 217t522.5 -217t217.5 -522t-217.5 -522.5t-522.5 -217.5t-522 217.5t-217 522.5zM293 715q0 -254 150.5 -415t375.5 -161q223 0 375 162t152 414t-152 413.5t-375 161.5q-225 0 -375.5 -161.5t-150.5 -413.5zM522 307v821h309q164 0 246 -56 t82 -189q0 -201 -217 -219l217 -357h-180l-197 348h-84v-348h-176zM698 791h144q72 0 106.5 21.5t34.5 86.5q0 94 -160 94h-125v-202z" />
<glyph unicode="&#xaf;" horiz-adv-x="569" d="M580 1266h-590v164h590v-164z" />
<glyph unicode="&#xb0;" horiz-adv-x="819" d="M409.5 1305q-79.5 0 -130 -50.5t-50.5 -130.5t50.5 -130t130 -50t130 50t50.5 130t-50.5 130.5t-130 50.5zM409.5 1454q137.5 0 233.5 -96t96 -234q0 -139 -95 -234t-234 -95q-143 0 -236.5 93t-93.5 236q0 137 96 233.5t233.5 96.5z" />
<glyph unicode="&#xb1;" horiz-adv-x="1228" d="M508 766v270h213v-270h414v-213h-414v-272h-213v272h-414v213h414zM94 0v213h1041v-213h-1041z" />
<glyph unicode="&#xb2;" horiz-adv-x="739" d="M680 578h-619v167q80 29 222 177q156 168 155 249q0 106 -125 107q-117 0 -215 -70l-14 178q125 68 276 68q141 0 228.5 -64.5t87.5 -199.5q0 -113 -125 -256q-117 -129 -221 -176v-4h350v-176z" />
<glyph unicode="&#xb3;" horiz-adv-x="739" d="M94 1237l-10 168q141 49 264 49t224.5 -51t101.5 -160q0 -172 -170 -215v-4q86 -6 134 -61.5t48 -135.5q0 -90 -61.5 -152.5t-142.5 -86t-171 -23.5q-125 0 -258 35l10 170q139 -41 222 -41q63 0 113.5 27.5t50.5 77.5q0 100 -150 100q-74 0 -115 -6v172q18 2 57.5 0 t61.5 -2q51 0 98.5 25.5t47.5 72.5q0 94 -131.5 94t-223.5 -53z" />
<glyph unicode="&#xb4;" horiz-adv-x="569" d="M59 1198l170 299h281l-281 -299h-170z" />
<glyph unicode="&#xb5;" horiz-adv-x="1251" d="M141 -430v1485h275v-563q0 -51 1 -82t11 -79t27.5 -75t52.5 -47.5t86 -20.5q70 0 121 35t75.5 91.5t35 111.5t10.5 113v516h274v-1055h-260v143h-4q-27 -63 -90.5 -115.5t-137.5 -52.5q-135 0 -198 70h-4v-475h-275z" />
<glyph unicode="&#xb6;" horiz-adv-x="1269" d="M453 -254v952q-211 0 -330 97.5t-119 261.5q0 203 129 288t363 85h600v-1684h-213v1520h-217v-1520h-213z" />
<glyph unicode="&#xb7;" horiz-adv-x="569" d="M284.5 424q-69.5 0 -113.5 44t-44 113.5t44 113.5t113.5 44t113.5 -44t44 -113.5t-44 -113.5t-113.5 -44z" />
<glyph unicode="&#xb8;" horiz-adv-x="569" d="M154 -412l41 111q96 -31 143 -31q109 0 108 72q0 74 -90 74q-35 0 -86 -19l-30 53l120 152h129l-94 -109l4 -4q74 12 84 13q66 0 115 -37t49 -105q0 -109 -75.5 -161t-180.5 -52q-145 0 -237 43z" />
<glyph unicode="&#xb9;" horiz-adv-x="739" d="M25 1237l284 205h193v-864h-213v655l-158 -121z" />
<glyph unicode="&#xba;" horiz-adv-x="813" d="M409.5 1454q151.5 0 256 -92t104.5 -240q0 -154 -103.5 -245t-259 -91t-260 92.5t-104.5 243.5q0 150 107.5 241t259 91zM414 1331q-88 0 -129 -58.5t-41 -150.5q0 -213 166 -213q160 0 159 213q0 86 -37.5 147.5t-117.5 61.5z" />
<glyph unicode="&#xbb;" d="M582 551l-242 -420h-258l225 420l-225 420h258zM1038 551l-241 -420h-258l225 420l-225 420h258z" />
<glyph unicode="&#xbc;" horiz-adv-x="1708" d="M336 -45l854 1520h168l-854 -1520h-168zM41 1237l285 205h192v-864h-213v655l-158 -121zM1106 326h237v350h-4zM932 162v174l368 528h256v-538h99v-164h-99v-162h-213v162h-411z" />
<glyph unicode="&#xbd;" horiz-adv-x="1708" d="M274 -45l854 1520h168l-854 -1520h-168zM20 1235l285 207h193v-864h-213v655l-158 -123zM1022 0v168q80 29 221 176q156 168 156 250q0 106 -125 106q-117 0 -215 -69l-15 178q127 68 277 68q141 0 228 -64.5t87 -200.5q0 -113 -125 -256q-117 -129 -221 -176v-4h350 v-176h-618z" />
<glyph unicode="&#xbe;" horiz-adv-x="1708" d="M360 -45l854 1520h168l-854 -1520h-168zM70 1237l-11 168q141 49 264 49t224.5 -51t101.5 -160q0 -172 -170 -215v-4q86 -6 134.5 -61.5t48.5 -135.5q0 -90 -61.5 -152.5t-142.5 -86t-171 -23.5q-125 0 -258 35l10 170q139 -41 233 -41q63 0 113.5 27.5t50.5 77.5 q0 100 -162 100q-74 0 -114 -6v172q18 2 57 0t62 -2q59 0 108 25.5t49 72.5q0 94 -143 94q-131 0 -223 -53zM1368 326v350h-4l-229 -350h233zM1581 162v-162h-213v162h-412v174l369 528h256v-538h98v-164h-98z" />
<glyph unicode="&#xbf;" horiz-adv-x="1024" d="M899 -104l23 -228q-158 -68 -406 -67q-127 0 -228.5 34.5t-170 120.5t-68.5 211q0 78 38 152t92 132l107 116q52 57 84.5 126.5t26.5 143.5h252q0 -217 -149 -383q-12 -12 -43 -46t-43 -50l-32 -44q-19 -28 -26.5 -55.5t-7.5 -58.5q0 -96 69.5 -141t166.5 -45 q161 0 315 82zM664 1055v-287h-287v287h287z" />
<glyph unicode="&#xc0;" horiz-adv-x="1478" d="M940 553l-207 590h-4l-207 -590h418zM18 0l557 1430h324l561 -1430h-317l-123 328h-580l-125 -328h-297zM737 1821l170 -299h-170l-280 299h280z" />
<glyph unicode="&#xc1;" horiz-adv-x="1478" d="M940 553l-207 590h-4l-207 -590h418zM18 0l557 1430h324l561 -1430h-317l-123 328h-580l-125 -328h-297zM571 1522l170 299h281l-281 -299h-170z" />
<glyph unicode="&#xc2;" horiz-adv-x="1478" d="M940 553l-207 590h-4l-207 -590h418zM18 0l557 1430h324l561 -1430h-317l-123 328h-580l-125 -328h-297zM641 1821h207l215 -299h-182l-140 176l-143 -176h-182z" />
<glyph unicode="&#xc3;" horiz-adv-x="1478" d="M940 553l-207 590h-4l-207 -590h418zM18 0l557 1430h324l561 -1430h-317l-123 328h-580l-125 -328h-297zM487 1559h-110q0 96 60.5 171.5t148.5 75.5q59 0 166 -41q12 -4 36.5 -15t38 -15t34 -9.5t40.5 -5.5q45 0 67.5 29t22.5 72h111q0 -106 -53.5 -177t-145.5 -71 q-80 0 -176 37q-96 39 -139 39q-49 0 -75 -27.5t-26 -62.5z" />
<glyph unicode="&#xc4;" horiz-adv-x="1478" d="M940 553l-207 590h-4l-207 -590h418zM18 0l557 1430h324l561 -1430h-317l-123 328h-580l-125 -328h-297zM831 1808h238v-237h-238v237zM647 1571h-237v237h237v-237z" />
<glyph unicode="&#xc5;" horiz-adv-x="1478" d="M940 553l-207 590h-4l-207 -590h418zM18 0l557 1430h324l561 -1430h-317l-123 328h-580l-125 -328h-297zM522 1696q0 90 64.5 154.5t154.5 64.5t153.5 -64.5t63.5 -154.5t-63.5 -153.5t-153.5 -63.5t-154.5 63.5t-64.5 153.5zM633 1696q0 -45 31.5 -76t76.5 -31t76 31 t31 76t-31 76.5t-76 31.5t-76.5 -31.5t-31.5 -76.5z" />
<glyph unicode="&#xc6;" horiz-adv-x="1933" d="M1030 553l-47 664h-4l-354 -664h405zM18 0l783 1430h1022v-226h-555l28 -352h482v-225h-457l33 -402h477v-225h-756l-24 328h-549l-176 -328h-308z" />
<glyph unicode="&#xc7;" horiz-adv-x="1251" d="M1194 260l12 -240q-190 -45 -325 -45q-360 0 -572.5 181.5t-212.5 533.5q0 365 209 564.5t576 199.5q172 0 323 -59l-20 -242q-133 76 -310 76q-217 0 -348 -146.5t-131 -371.5q0 -223 131 -366.5t355 -143.5q198 0 313 59zM537 -412l41 111q98 -31 143 -31q109 0 108 72 q0 74 -90 74q-35 0 -86 -19l-30 53l120 152h129l-94 -109l4 -4q74 12 84 13q66 0 115 -37t49 -105q0 -109 -75.5 -161t-180.5 -52q-143 0 -237 43z" />
<glyph unicode="&#xc8;" d="M166 0v1430h844v-226h-557v-352h510v-225h-510v-402h561v-225h-848zM567 1821l170 -299h-170l-280 299h280z" />
<glyph unicode="&#xc9;" d="M166 0v1430h844v-226h-557v-352h510v-225h-510v-402h561v-225h-848zM401 1522l170 299h281l-281 -299h-170z" />
<glyph unicode="&#xca;" d="M166 0v1430h844v-226h-557v-352h510v-225h-510v-402h561v-225h-848zM471 1821h207l215 -299h-182l-140 176l-143 -176h-182z" />
<glyph unicode="&#xcb;" d="M166 0v1430h844v-226h-557v-352h510v-225h-510v-402h561v-225h-848zM662 1808h237v-237h-237v237zM477 1571h-237v237h237v-237z" />
<glyph unicode="&#xcc;" horiz-adv-x="569" d="M141 0v1430h287v-1430h-287zM283 1821l170 -299h-170l-281 299h281z" />
<glyph unicode="&#xcd;" horiz-adv-x="569" d="M141 0v1430h287v-1430h-287zM117 1522l170 299h280l-280 -299h-170z" />
<glyph unicode="&#xce;" horiz-adv-x="569" d="M141 0v1430h287v-1430h-287zM186 1821h207l215 -299h-182l-139 176l-144 -176h-182z" />
<glyph unicode="&#xcf;" horiz-adv-x="569" d="M141 0v1430h287v-1430h-287zM377 1808h237v-237h-237v237zM193 1571h-238v237h238v-237z" />
<glyph unicode="&#xd0;" horiz-adv-x="1478" d="M166 0v688h-131v176h131v566h391q825 0 825 -715t-825 -715h-391zM453 688v-463h159q190 0 330.5 133.5t140.5 356.5t-140 356t-331 133h-159v-340h299v-176h-299z" />
<glyph unicode="&#xd1;" horiz-adv-x="1478" d="M152 0v1430h352l545 -1070h4v1070h274v-1430h-350l-547 1069h-4v-1069h-274zM487 1559h-110q0 96 60.5 171.5t148.5 75.5q59 0 166 -41q12 -4 36.5 -15t38 -15t34 -9.5t40.5 -5.5q45 0 67.5 29t22.5 72h111q0 -106 -53.5 -177t-145.5 -71q-80 0 -176 37q-96 39 -139 39 q-49 0 -75 -27.5t-26 -62.5z" />
<glyph unicode="&#xd2;" horiz-adv-x="1593" d="M96 719q0 336 183.5 535.5t517.5 199.5q330 0 515 -201.5t185 -533.5q0 -334 -184.5 -539t-515.5 -205q-336 0 -518.5 203t-182.5 541zM395 719q0 -137 38 -250t131 -190.5t232.5 -77.5t232.5 77.5t131 190.5t38 250q0 211 -101.5 360.5t-300 149.5t-300 -149.5 t-101.5 -360.5zM795 1821l170 -299h-170l-281 299h281z" />
<glyph unicode="&#xd3;" horiz-adv-x="1593" d="M96 719q0 336 183.5 535.5t517.5 199.5q330 0 515 -201.5t185 -533.5q0 -334 -184.5 -539t-515.5 -205q-336 0 -518.5 203t-182.5 541zM395 719q0 -137 38 -250t131 -190.5t232.5 -77.5t232.5 77.5t131 190.5t38 250q0 211 -101.5 360.5t-300 149.5t-300 -149.5 t-101.5 -360.5zM629 1522l170 299h280l-280 -299h-170z" />
<glyph unicode="&#xd4;" horiz-adv-x="1593" d="M96 719q0 336 183.5 535.5t517.5 199.5q330 0 515 -201.5t185 -533.5q0 -334 -184.5 -539t-515.5 -205q-336 0 -518.5 203t-182.5 541zM395 719q0 -137 38 -250t131 -190.5t232.5 -77.5t232.5 77.5t131 190.5t38 250q0 211 -101.5 360.5t-300 149.5t-300 -149.5 t-101.5 -360.5zM698 1821h207l215 -299h-182l-139 176l-144 -176h-182z" />
<glyph unicode="&#xd5;" horiz-adv-x="1593" d="M96 719q0 336 183.5 535.5t517.5 199.5q330 0 515 -201.5t185 -533.5q0 -334 -184.5 -539t-515.5 -205q-336 0 -518.5 203t-182.5 541zM395 719q0 -137 38 -250t131 -190.5t232.5 -77.5t232.5 77.5t131 190.5t38 250q0 211 -101.5 360.5t-300 149.5t-300 -149.5 t-101.5 -360.5zM545 1559h-111q0 96 60.5 171.5t148.5 75.5q59 0 166 -41q12 -4 36.5 -15t38 -15t34 -9.5t40.5 -5.5q45 0 68 29t23 72h110q0 -106 -53 -177t-145 -71q-80 0 -177 37q-96 39 -139 39q-49 0 -74.5 -27.5t-25.5 -62.5z" />
<glyph unicode="&#xd6;" horiz-adv-x="1593" d="M96 719q0 336 183.5 535.5t517.5 199.5q330 0 515 -201.5t185 -533.5q0 -334 -184.5 -539t-515.5 -205q-336 0 -518.5 203t-182.5 541zM395 719q0 -137 38 -250t131 -190.5t232.5 -77.5t232.5 77.5t131 190.5t38 250q0 211 -101.5 360.5t-300 149.5t-300 -149.5 t-101.5 -360.5zM889 1808h237v-237h-237v237zM705 1571h-238v237h238v-237z" />
<glyph unicode="&#xd7;" horiz-adv-x="1228" d="M467 518l-332 332l148 147l331 -331l332 331l148 -147l-334 -332l334 -332l-148 -147l-332 334l-331 -334l-148 147z" />
<glyph unicode="&#xd8;" horiz-adv-x="1593" d="M467 397l575 742q-100 90 -245 90q-199 0 -300.5 -149.5t-101.5 -360.5q0 -191 72 -322zM1118 1042l-577 -743q98 -98 256 -98q139 0 232 77.5t131 190.5t38 250q0 192 -80 323zM1313 1489l92 -76l-111 -143q203 -199 203 -551q0 -334 -184.5 -539t-515.5 -205 q-250 0 -418 117l-117 -151l-92 73l121 156q-195 190 -195 549q0 336 183.5 535.5t517.5 199.5q236 0 405 -108z" />
<glyph unicode="&#xd9;" horiz-adv-x="1478" d="M156 516v914h286v-826q0 -403 297 -403t297 403v826h287v-914q0 -541 -583.5 -541t-583.5 541zM737 1821l170 -299h-170l-280 299h280z" />
<glyph unicode="&#xda;" horiz-adv-x="1478" d="M156 516v914h286v-826q0 -403 297 -403t297 403v826h287v-914q0 -541 -583.5 -541t-583.5 541zM571 1522l170 299h281l-281 -299h-170z" />
<glyph unicode="&#xdb;" horiz-adv-x="1478" d="M156 516v914h286v-826q0 -403 297 -403t297 403v826h287v-914q0 -541 -583.5 -541t-583.5 541zM641 1821h207l215 -299h-182l-140 176l-143 -176h-182z" />
<glyph unicode="&#xdc;" horiz-adv-x="1478" d="M156 516v914h286v-826q0 -403 297 -403t297 403v826h287v-914q0 -541 -583.5 -541t-583.5 541zM831 1808h238v-237h-238v237zM647 1571h-237v237h237v-237z" />
<glyph unicode="&#xdd;" horiz-adv-x="1366" d="M545 0v565l-522 865h335l338 -601l344 601h303l-512 -865v-565h-286zM516 1522l170 299h281l-281 -299h-170z" />
<glyph unicode="&#xde;" d="M428 0h-287v1430h287v-238h76q596 0 596 -434q0 -236 -150.5 -344.5t-400.5 -108.5h-121v-305zM428 967v-437h100q272 0 273 213q0 117 -76 170.5t-197 53.5h-100z" />
<glyph unicode="&#xdf;" horiz-adv-x="1251" d="M422 0h-275v1034q0 240 129.5 383.5t374.5 143.5q186 0 325.5 -100.5t139.5 -276.5q0 -139 -69.5 -233.5t-202.5 -129.5v-4q154 -20 250 -125.5t96 -251.5q0 -207 -134 -329.5t-345 -122.5q-49 0 -179 22l9 213q63 -23 143 -22q35 0 67.5 10t69.5 35.5t59.5 83 t22.5 139.5q0 231 -321 231v213q248 0 247 224q0 92 -46 151.5t-136 59.5q-111 0 -168 -87t-57 -204v-1057z" />
<glyph unicode="&#xe0;" d="M197 764l-9 235q172 80 367 80q240 0 347.5 -105.5t107.5 -338.5v-135q0 -109 4 -264q2 -109 12 -236h-242q-4 20 -12 158h-4q-47 -84 -137 -133.5t-189 -49.5q-150 0 -259 85t-109 229q0 213 180 301q125 61 354 61h152q0 125 -56.5 176.5t-181.5 51.5q-173 0 -325 -115 zM336 305q0 -66 48 -97.5t126 -31.5q121 0 192 94q57 76 58 217h-119q-305 0 -305 -182zM532 1497l170 -299h-170l-280 299h280z" />
<glyph unicode="&#xe1;" d="M197 764l-9 235q172 80 367 80q240 0 347.5 -105.5t107.5 -338.5v-135q0 -109 4 -264q2 -109 12 -236h-242q-4 20 -12 158h-4q-47 -84 -137 -133.5t-189 -49.5q-150 0 -259 85t-109 229q0 213 180 301q125 61 354 61h152q0 125 -56.5 176.5t-181.5 51.5q-173 0 -325 -115 zM336 305q0 -66 48 -97.5t126 -31.5q121 0 192 94q57 76 58 217h-119q-305 0 -305 -182zM418 1198l170 299h280l-280 -299h-170z" />
<glyph unicode="&#xe2;" d="M197 764l-9 235q172 80 367 80q240 0 347.5 -105.5t107.5 -338.5v-135q0 -109 4 -264q2 -109 12 -236h-242q-4 20 -12 158h-4q-47 -84 -137 -133.5t-189 -49.5q-150 0 -259 85t-109 229q0 213 180 301q125 61 354 61h152q0 125 -56.5 176.5t-181.5 51.5q-173 0 -325 -115 zM336 305q0 -66 48 -97.5t126 -31.5q121 0 192 94q57 76 58 217h-119q-305 0 -305 -182zM471 1497h207l215 -299h-182l-140 176l-143 -176h-182z" />
<glyph unicode="&#xe3;" d="M197 764l-9 235q172 80 367 80q240 0 347.5 -105.5t107.5 -338.5v-135q0 -109 4 -264q2 -109 12 -236h-242q-4 20 -12 158h-4q-47 -84 -137 -133.5t-189 -49.5q-150 0 -259 85t-109 229q0 213 180 301q125 61 354 61h152q0 125 -56.5 176.5t-181.5 51.5q-173 0 -325 -115 zM336 305q0 -66 48 -97.5t126 -31.5q121 0 192 94q57 76 58 217h-119q-305 0 -305 -182zM317 1235h-110q0 96 60.5 172t148.5 76q59 0 166 -41q12 -4 36.5 -15.5t38 -15.5t34 -9t40.5 -5q45 0 67.5 28.5t22.5 71.5h111q0 -106 -53.5 -177t-145.5 -71q-80 0 -176 37 q-98 39 -139 39q-49 0 -75 -27.5t-26 -62.5z" />
<glyph unicode="&#xe4;" d="M197 764l-9 235q172 80 367 80q240 0 347.5 -105.5t107.5 -338.5v-135q0 -109 4 -264q2 -109 12 -236h-242q-4 20 -12 158h-4q-47 -84 -137 -133.5t-189 -49.5q-150 0 -259 85t-109 229q0 213 180 301q125 61 354 61h152q0 125 -56.5 176.5t-181.5 51.5q-173 0 -325 -115 zM336 305q0 -66 48 -97.5t126 -31.5q121 0 192 94q57 76 58 217h-119q-305 0 -305 -182zM662 1485h237v-238h-237v238zM477 1247h-237v238h237v-238z" />
<glyph unicode="&#xe5;" d="M197 764l-9 235q172 80 367 80q240 0 347.5 -105.5t107.5 -338.5v-135q0 -109 4 -264q2 -109 12 -236h-242q-4 20 -12 158h-4q-47 -84 -137 -133.5t-189 -49.5q-150 0 -259 85t-109 229q0 213 180 301q125 61 354 61h152q0 125 -56.5 176.5t-181.5 51.5q-173 0 -325 -115 zM336 305q0 -66 48 -97.5t126 -31.5q121 0 192 94q57 76 58 217h-119q-305 0 -305 -182zM352 1403q0 88 65.5 153.5t153.5 65.5q90 0 153.5 -64.5t63.5 -154.5t-63 -153.5t-153.5 -63.5t-155 63.5t-64.5 153.5zM463 1403q0 -45 31.5 -76t76.5 -31t76 31t31 76t-31 76.5 t-76 31.5q-47 0 -77.5 -30.5t-30.5 -77.5z" />
<glyph unicode="&#xe6;" horiz-adv-x="1820" d="M1022 631h463q0 106 -54.5 177t-160.5 71q-117 0 -182.5 -71t-65.5 -177zM1675 283v-224q-152 -84 -362 -84q-309 0 -443 191q-57 -94 -165.5 -144.5t-227.5 -46.5q-170 0 -286.5 77t-116.5 237q0 104 47 179t128 112.5t167 54t186 16.5h158q0 117 -55.5 173.5 t-188.5 56.5q-172 0 -326 -117l-8 235q174 80 375 80q125 0 205 -26.5t153 -106.5q127 133 361 133q471 0 471 -637h-725q0 -125 86 -195.5t217 -70.5q160 1 350 107zM336 289q0 -47 42 -80t114 -33q143 0 205.5 76t62.5 235h-119q-55 0 -103.5 -8t-96.5 -28.5t-76.5 -62.5 t-28.5 -99z" />
<glyph unicode="&#xe7;" horiz-adv-x="909" d="M850 1044l-25 -217q-84 39 -186 39q-127 0 -203 -92t-76 -242q0 -154 73 -249t212 -95q98 0 211 50l12 -228q-113 -35 -274 -35q-252 0 -386 154t-134 403q0 238 135 392.5t375 154.5q149 0 266 -35zM324 -412l41 111q98 -31 143 -31q109 0 108 72q0 74 -90 74 q-35 0 -86 -19l-30 53l120 152h129l-94 -109l4 -4q74 12 84 13q66 0 115 -37t49 -105q0 -109 -75.5 -161t-180.5 -52q-143 0 -237 43z" />
<glyph unicode="&#xe8;" d="M336 631h467q-6 111 -60.5 179.5t-162.5 68.5q-111 0 -172.5 -67.5t-71.5 -180.5zM987 283v-224q-152 -84 -362 -84q-262 0 -406.5 143.5t-144.5 403.5q0 242 127 399.5t362 157.5q143 0 242.5 -46t155 -135t80 -199.5t24.5 -256.5h-729q8 -125 90 -195.5t211 -70.5 q160 1 350 107zM532 1497l170 -299h-170l-280 299h280z" />
<glyph unicode="&#xe9;" d="M336 631h467q-6 111 -60.5 179.5t-162.5 68.5q-111 0 -172.5 -67.5t-71.5 -180.5zM987 283v-224q-152 -84 -362 -84q-262 0 -406.5 143.5t-144.5 403.5q0 242 127 399.5t362 157.5q143 0 242.5 -46t155 -135t80 -199.5t24.5 -256.5h-729q8 -125 90 -195.5t211 -70.5 q160 1 350 107zM418 1198l170 299h280l-280 -299h-170z" />
<glyph unicode="&#xea;" d="M336 631h467q-6 111 -60.5 179.5t-162.5 68.5q-111 0 -172.5 -67.5t-71.5 -180.5zM987 283v-224q-152 -84 -362 -84q-262 0 -406.5 143.5t-144.5 403.5q0 242 127 399.5t362 157.5q143 0 242.5 -46t155 -135t80 -199.5t24.5 -256.5h-729q8 -125 90 -195.5t211 -70.5 q160 1 350 107zM471 1497h207l215 -299h-182l-140 176l-143 -176h-182z" />
<glyph unicode="&#xeb;" d="M336 631h467q-6 111 -60.5 179.5t-162.5 68.5q-111 0 -172.5 -67.5t-71.5 -180.5zM987 283v-224q-152 -84 -362 -84q-262 0 -406.5 143.5t-144.5 403.5q0 242 127 399.5t362 157.5q143 0 242.5 -46t155 -135t80 -199.5t24.5 -256.5h-729q8 -125 90 -195.5t211 -70.5 q160 1 350 107zM662 1485h237v-238h-237v238zM477 1247h-237v238h237v-238z" />
<glyph unicode="&#xec;" horiz-adv-x="569" d="M422 0h-275v1055h275v-1055zM248 1497l170 -299h-170l-281 299h281z" />
<glyph unicode="&#xed;" horiz-adv-x="569" d="M422 0h-275v1055h275v-1055zM133 1198l170 299h281l-281 -299h-170z" />
<glyph unicode="&#xee;" horiz-adv-x="569" d="M422 0h-275v1055h275v-1055zM186 1497h207l215 -299h-182l-139 176l-144 -176h-182z" />
<glyph unicode="&#xef;" horiz-adv-x="569" d="M422 0h-275v1055h275v-1055zM377 1485h237v-238h-237v238zM193 1247h-238v238h238v-238z" />
<glyph unicode="&#xf0;" horiz-adv-x="1251" d="M629 842q-127 0 -198 -100.5t-71 -227.5q0 -131 66 -228.5t201 -97.5q131 0 194.5 94.5t63.5 231.5q0 125 -65.5 226.5t-190.5 101.5zM297 1217l170 110q-100 63 -203 98l125 140q135 -49 260 -121l189 121l104 -97l-170 -108q399 -307 399 -782q0 -291 -142 -447 t-404 -156q-254 0 -402.5 155t-148.5 390q-4 221 127 378t350 157q150 0 252 -66h4q-66 139 -217 254l-189 -123z" />
<glyph unicode="&#xf1;" horiz-adv-x="1251" d="M141 0v1055h260v-144h5q119 168 346 168q180 0 269 -112.5t89 -300.5v-666h-274v563q0 51 -1 82t-11.5 79t-28 74.5t-52 47t-86.5 20.5q-70 0 -121 -34.5t-75.5 -91t-34.5 -112t-10 -112.5v-516h-275zM375 1235h-111q0 96 60.5 172t148.5 76q59 0 166 -41 q12 -4 36.5 -15.5t38 -15.5t34 -9t40.5 -5q45 0 68 28.5t23 71.5h110q0 -106 -53 -177t-145 -71q-80 0 -177 37q-98 39 -139 39q-49 0 -74.5 -27.5t-25.5 -62.5z" />
<glyph unicode="&#xf2;" horiz-adv-x="1251" d="M74 520q0 256 155.5 407.5t395 151.5t396.5 -151.5t157 -407.5q0 -236 -148.5 -390.5t-404.5 -154.5q-254 0 -402.5 154.5t-148.5 390.5zM360 553q0 -154 60.5 -259.5t204.5 -105.5q76 0 130 32t82.5 86t41 114.5t12.5 132.5q0 131 -69.5 222t-196.5 91t-196 -92 t-69 -221zM590 1497l170 -299h-170l-281 299h281z" />
<glyph unicode="&#xf3;" horiz-adv-x="1251" d="M74 520q0 256 155.5 407.5t395 151.5t396.5 -151.5t157 -407.5q0 -236 -148.5 -390.5t-404.5 -154.5q-254 0 -402.5 154.5t-148.5 390.5zM360 553q0 -154 60.5 -259.5t204.5 -105.5q76 0 130 32t82.5 86t41 114.5t12.5 132.5q0 131 -69.5 222t-196.5 91t-196 -92 t-69 -221zM475 1198l170 299h281l-281 -299h-170z" />
<glyph unicode="&#xf4;" horiz-adv-x="1251" d="M74 520q0 256 155.5 407.5t395 151.5t396.5 -151.5t157 -407.5q0 -236 -148.5 -390.5t-404.5 -154.5q-254 0 -402.5 154.5t-148.5 390.5zM360 553q0 -154 60.5 -259.5t204.5 -105.5q76 0 130 32t82.5 86t41 114.5t12.5 132.5q0 131 -69.5 222t-196.5 91t-196 -92 t-69 -221zM528 1497h207l215 -299h-182l-139 176l-144 -176h-182z" />
<glyph unicode="&#xf5;" horiz-adv-x="1251" d="M74 520q0 256 155.5 407.5t395 151.5t396.5 -151.5t157 -407.5q0 -236 -148.5 -390.5t-404.5 -154.5q-254 0 -402.5 154.5t-148.5 390.5zM360 553q0 -154 60.5 -259.5t204.5 -105.5q76 0 130 32t82.5 86t41 114.5t12.5 132.5q0 131 -69.5 222t-196.5 91t-196 -92 t-69 -221zM375 1235h-111q0 96 60.5 172t148.5 76q59 0 166 -41q12 -4 36.5 -15.5t38 -15.5t34 -9t40.5 -5q45 0 68 28.5t23 71.5h110q0 -106 -53 -177t-145 -71q-80 0 -177 37q-98 39 -139 39q-49 0 -74.5 -27.5t-25.5 -62.5z" />
<glyph unicode="&#xf6;" horiz-adv-x="1251" d="M74 520q0 256 155.5 407.5t395 151.5t396.5 -151.5t157 -407.5q0 -236 -148.5 -390.5t-404.5 -154.5q-254 0 -402.5 154.5t-148.5 390.5zM360 553q0 -154 60.5 -259.5t204.5 -105.5q76 0 130 32t82.5 86t41 114.5t12.5 132.5q0 131 -69.5 222t-196.5 91t-196 -92 t-69 -221zM719 1485h237v-238h-237v238zM535 1247h-238v238h238v-238z" />
<glyph unicode="&#xf7;" horiz-adv-x="1228" d="M1135 412h-1041v213h1041v-213zM614.5 1083q69.5 0 113.5 -44t44 -113.5t-44 -113.5t-113.5 -44t-113.5 44t-44 113.5t44 113.5t113.5 44zM614.5 -47q-69.5 0 -113.5 44t-44 113.5t44 113.5t113.5 44t113.5 -44t44 -113.5t-44 -113.5t-113.5 -44z" />
<glyph unicode="&#xf8;" horiz-adv-x="1251" d="M397 344l389 467q-66 55 -161 55q-127 0 -196 -92t-69 -221q0 -123 37 -209zM854 725l-395 -475q66 -61 166 -62q76 0 130 32t82.5 86t41 114.5t12.5 132.5q0 94 -37 172zM1051 1126l82 -67l-111 -133q156 -152 156 -406q0 -236 -148.5 -390.5t-404.5 -154.5 q-182 0 -322 88l-113 -135l-84 68l115 137q-147 147 -147 387q0 256 155.5 407.5t395.5 151.5q178 0 315 -86z" />
<glyph unicode="&#xf9;" horiz-adv-x="1251" d="M1110 1055v-1055h-260v143h-4q-137 -168 -346 -168q-180 0 -269.5 113t-89.5 301v666h275v-563q0 -51 1 -82t11 -79t27.5 -75t52.5 -47.5t86 -20.5q70 0 121 35t75.5 91.5t35 111.5t10.5 113v516h274zM590 1497l170 -299h-170l-281 299h281z" />
<glyph unicode="&#xfa;" horiz-adv-x="1251" d="M1110 1055v-1055h-260v143h-4q-137 -168 -346 -168q-180 0 -269.5 113t-89.5 301v666h275v-563q0 -51 1 -82t11 -79t27.5 -75t52.5 -47.5t86 -20.5q70 0 121 35t75.5 91.5t35 111.5t10.5 113v516h274zM475 1198l170 299h281l-281 -299h-170z" />
<glyph unicode="&#xfb;" horiz-adv-x="1251" d="M1110 1055v-1055h-260v143h-4q-137 -168 -346 -168q-180 0 -269.5 113t-89.5 301v666h275v-563q0 -51 1 -82t11 -79t27.5 -75t52.5 -47.5t86 -20.5q70 0 121 35t75.5 91.5t35 111.5t10.5 113v516h274zM528 1497h207l215 -299h-182l-139 176l-144 -176h-182z" />
<glyph unicode="&#xfc;" horiz-adv-x="1251" d="M1110 1055v-1055h-260v143h-4q-137 -168 -346 -168q-180 0 -269.5 113t-89.5 301v666h275v-563q0 -51 1 -82t11 -79t27.5 -75t52.5 -47.5t86 -20.5q70 0 121 35t75.5 91.5t35 111.5t10.5 113v516h274zM719 1485h237v-238h-237v238zM535 1247h-238v238h238v-238z" />
<glyph unicode="&#xfd;" d="M326 1055l254 -770h4l254 770h278l-395 -1047l-19 -49l-40 -107q-14 -36 -43 -94.5t-56.5 -88t-68.5 -62.5t-93.5 -47.5t-117.5 -14.5q-96 0 -195 29l18 203q53 -18 142 -19q82 0 130 51.5t48 137.5l-403 1108h303zM418 1198l170 299h280l-280 -299h-170z" />
<glyph unicode="&#xfe;" horiz-adv-x="1251" d="M141 -430v1966h275v-618h4q96 162 315 161q227 0 335 -154.5t108 -394.5q0 -154 -41 -273.5t-144.5 -200.5t-257.5 -81q-203 0 -315 144h-4v-549h-275zM664 866q-121 0 -183.5 -103.5t-62.5 -232.5q0 -133 58.5 -237.5t182.5 -104.5q84 0 139.5 57.5t74 130.5t18.5 154 q0 80 -18.5 151t-71.5 128t-137 57z" />
<glyph unicode="&#xff;" d="M326 1055l254 -770h4l254 770h278l-395 -1047l-19 -49l-40 -107q-14 -36 -43 -94.5t-56.5 -88t-68.5 -62.5t-93.5 -47.5t-117.5 -14.5q-96 0 -195 29l18 203q53 -18 142 -19q82 0 130 51.5t48 137.5l-403 1108h303zM662 1485h237v-238h-237v238zM477 1247h-237v238h237 v-238z" />
<glyph unicode="&#x152;" horiz-adv-x="1933" d="M1004 225v979q-86 12 -152 13q-215 0 -336 -138.5t-121 -371.5q0 -219 122 -355.5t343 -138.5q62 0 144 12zM1823 1430v-226h-533v-352h488v-225h-488v-402h541v-225h-543q-76 0 -229.5 -6t-229.5 -6q-733 0 -733 719q0 360 206 547.5t564 187.5q72 0 211.5 -6t210.5 -6 h535z" />
<glyph unicode="&#x153;" horiz-adv-x="1933" d="M360 526q0 -92 23 -166.5t85 -129t157 -54.5q141 0 206.5 99.5t65.5 246.5q0 150 -65.5 253.5t-206.5 103.5q-129 0 -197 -108t-68 -245zM1860 442h-689q2 -131 83 -198.5t210 -67.5q170 0 314 105l8 -224q-139 -82 -330 -82q-315 0 -428 175q-125 -174 -403 -175 q-254 0 -402.5 155t-148.5 390q0 256 155.5 407.5t395.5 151.5q262 0 393 -180q59 88 157.5 134t210.5 46q474 0 474 -637zM1171 631h426q-4 109 -54 178.5t-154 69.5q-100 0 -159 -74t-59 -174z" />
<glyph unicode="&#x178;" horiz-adv-x="1366" d="M545 0v565l-522 865h335l338 -601l344 601h303l-512 -865v-565h-286zM776 1808h238v-237h-238v237zM592 1571h-238v237h238v-237z" />
<glyph unicode="&#x2c6;" horiz-adv-x="569" d="M186 1497h207l215 -299h-182l-139 176l-144 -176h-182z" />
<glyph unicode="&#x2dc;" horiz-adv-x="569" d="M33 1235h-111q0 96 60.5 172t148.5 76q59 0 166 -41q12 -4 36.5 -15.5t38 -15.5t34 -9t40.5 -5q45 0 68 28.5t23 71.5h110q0 -106 -53 -177t-145 -71q-80 0 -177 37q-96 39 -139 39q-49 0 -74.5 -27.5t-25.5 -62.5z" />
<glyph unicode="&#x2000;" horiz-adv-x="956" />
<glyph unicode="&#x2001;" horiz-adv-x="1914" />
<glyph unicode="&#x2002;" horiz-adv-x="956" />
<glyph unicode="&#x2003;" horiz-adv-x="1914" />
<glyph unicode="&#x2004;" horiz-adv-x="636" />
<glyph unicode="&#x2005;" horiz-adv-x="477" />
<glyph unicode="&#x2006;" horiz-adv-x="317" />
<glyph unicode="&#x2007;" horiz-adv-x="317" />
<glyph unicode="&#x2008;" horiz-adv-x="237" />
<glyph unicode="&#x2009;" horiz-adv-x="382" />
<glyph unicode="&#x200a;" horiz-adv-x="104" />
<glyph unicode="&#x2010;" horiz-adv-x="681" d="M610 438h-538v226h538v-226z" />
<glyph unicode="&#x2011;" horiz-adv-x="681" d="M610 438h-538v226h538v-226z" />
<glyph unicode="&#x2012;" horiz-adv-x="681" d="M610 438h-538v226h538v-226z" />
<glyph unicode="&#x2013;" horiz-adv-x="1024" d="M0 457v188h1024v-188h-1024z" />
<glyph unicode="&#x2014;" horiz-adv-x="2048" d="M0 457v188h2048v-188h-2048z" />
<glyph unicode="&#x2018;" horiz-adv-x="569" d="M70 918l186 512h244l-129 -512h-301z" />
<glyph unicode="&#x2019;" horiz-adv-x="569" d="M70 918l131 512h299l-189 -512h-241z" />
<glyph unicode="&#x201a;" horiz-adv-x="569" d="M70 -225l131 512h299l-189 -512h-241z" />
<glyph unicode="&#x201c;" horiz-adv-x="985" d="M70 918l186 512h244l-129 -512h-301zM485 918l187 512h243l-129 -512h-301z" />
<glyph unicode="&#x201d;" horiz-adv-x="985" d="M70 918l131 512h299l-189 -512h-241zM485 918l131 512h299l-188 -512h-242z" />
<glyph unicode="&#x201e;" horiz-adv-x="985" d="M485 -225l131 512h299l-188 -512h-242zM70 -225l131 512h299l-189 -512h-241z" />
<glyph unicode="&#x2022;" horiz-adv-x="1024" d="M156 714.5q0 147.5 104.5 252t251.5 104.5t252.5 -104.5t105.5 -252t-105.5 -253t-252.5 -105.5t-251.5 105.5t-104.5 253z" />
<glyph unicode="&#x2026;" horiz-adv-x="2048" d="M485 0h-286v287h286v-287zM1167 0h-286v287h286v-287zM1849 0h-286v287h286v-287z" />
<glyph unicode="&#x202f;" horiz-adv-x="382" />
<glyph unicode="&#x2039;" horiz-adv-x="681" d="M100 551l242 420h258l-225 -420l225 -420h-258z" />
<glyph unicode="&#x203a;" horiz-adv-x="681" d="M582 551l-242 -420h-258l225 420l-225 420h258z" />
<glyph unicode="&#x205f;" horiz-adv-x="477" />
<glyph unicode="&#x2122;" horiz-adv-x="2048" d="M952 578v852h297l203 -533l201 533h297v-852h-201v602h-4l-217 -602h-154l-217 602h-4v-602h-201zM338 578v688h-240v164h693v-164h-240v-688h-213z" />
<glyph unicode="&#xe000;" horiz-adv-x="1055" d="M0 1055h1055v-1055h-1055v1055z" />
<glyph unicode="&#xfb01;" horiz-adv-x="1366" d="M944 0v1055h275v-1055h-275zM944 1247v262h275v-262h-275zM242 0v854h-203v201h203v147q0 162 88 260.5t248 98.5q102 0 200 -23l-22 -227q-63 37 -119 37q-121 0 -121 -162v-131h240v-201h-240v-854h-274z" />
<glyph unicode="&#xfb02;" horiz-adv-x="1366" d="M944 0v1536h275v-1536h-275zM242 0v854h-203v201h203v147q0 162 88 260.5t248 98.5q102 0 200 -23l-22 -227q-63 37 -119 37q-121 0 -121 -162v-131h240v-201h-240v-854h-274z" />
<glyph unicode="&#xfb03;" horiz-adv-x="2162" d="M1740 0v1055h275v-1055h-275zM1740 1247v262h275v-262h-275zM1039 0v854h-203v201h203v147q0 162 88 260.5t248 98.5q102 0 200 -23l-22 -227q-63 37 -119 37q-121 0 -121 -162v-131h240v-201h-240v-854h-274zM242 0v854h-203v201h203v147q0 162 88 260.5t248 98.5 q102 0 200 -23l-22 -227q-63 37 -119 37q-121 0 -121 -162v-131h240v-201h-240v-854h-274z" />
<glyph unicode="&#xfb04;" horiz-adv-x="2162" d="M1740 0v1536h275v-1536h-275zM1039 0v854h-203v201h203v147q0 162 88 260.5t248 98.5q102 0 200 -23l-22 -227q-63 37 -119 37q-121 0 -121 -162v-131h240v-201h-240v-854h-274zM242 0v854h-203v201h203v147q0 162 88 260.5t248 98.5q102 0 200 -23l-22 -227 q-63 37 -119 37q-121 0 -121 -162v-131h240v-201h-240v-854h-274z" />
</font>
</defs>
</svg>
