<?xml version="1.0" standalone="no"?>
<!DOCTYPE svg PUBLIC "-//W3C//DTD SVG 1.1//EN" "http://www.w3.org/Graphics/SVG/1.1/DTD/svg11.dtd" >
<svg xmlns="http://www.w3.org/2000/svg">
<metadata>
This is a custom SVG webfont generated by Font Squirrel.
Copyright   : Copyright c 1985 1987 Adobe Systems Incorporated  All rights reservedGlypha is a trademark of Allied Corporation
</metadata>
<defs>
<font id="webfontta11RvtM" horiz-adv-x="1138" >
<font-face units-per-em="2048" ascent="1638" descent="-410" />
<missing-glyph horiz-adv-x="569" />
<glyph unicode=" " horiz-adv-x="569" d="M0 0z" />
<glyph unicode="!" horiz-adv-x="681" d="M240 406l-56 1060h320l-55 -1060h-209zM205 0v270h278v-270h-278z" />
<glyph unicode="&#x22;" horiz-adv-x="819" d="M674 879h-150l-53 587h258zM276 879h-149l-53 587h258z" />
<glyph unicode="#" d="M803 492l-72 -492h-156l70 492h-211l-69 -492h-156l70 492h-248v153h272l31 209h-244v154h266l66 458h153l-63 -458h211l65 458h156l-65 -458h231v-154h-254l-29 -209h224v-153h-248zM698 854h-211l-28 -209h209z" />
<glyph unicode="$" d="M1051 985h-236q-12 268 -170 311v-434l86 -33q193 -68 264 -151q88 -96 88 -266q0 -203 -118.5 -316.5t-319.5 -118.5v-176h-153v189q-156 37 -207 151v-141h-228v510h240q-2 -125 45 -219t150 -119v465l-95 37q-168 63 -254 148t-86 245q0 195 118 311.5t317 116.5v178 h153v-198q96 -23 178 -129v120h228v-481zM492 922v381q-45 -8 -95 -46q-63 -49 -63 -141q0 -131 158 -194zM645 578v-404q70 18 111 69.5t41 129.5q0 84 -38 129t-114 76z" />
<glyph unicode="%" horiz-adv-x="1705" d="M1233 -25q-156 0 -226.5 107.5t-70.5 269.5q0 180 68 264q84 106 213 107q156 0 227.5 -103.5t71.5 -267.5q0 -238 -132 -332q-25 -18 -71.5 -31.5t-79.5 -13.5zM1225 592q-115 0 -115 -242q0 -244 119 -244q113 0 112 238q0 47 -2 77t-12 76t-35.5 70.5t-66.5 24.5z M530 -25h-170l809 1516h172zM481 739q-145 0 -218 106.5t-73 258.5q0 178 62 270q80 117 217 117q158 0 229.5 -102.5t71.5 -266.5q0 -98 -25.5 -181t-93.5 -142.5t-170 -59.5zM479 1360q-115 0 -114 -240q0 -250 114 -250q117 0 117 250q0 240 -117 240z" />
<glyph unicode="&#x26;" horiz-adv-x="1593" d="M592 958l16 11q158 104 158 213q0 74 -40 120t-114 46q-68 0 -112.5 -39t-44.5 -107q0 -107 137 -244zM739 791l295 -322q68 104 74 244h-125v170h496v-170h-160q-16 -236 -133 -404l106 -125h209v-184h-379l-110 117q-2 -2 -9.5 -6.5t-9.5 -8.5q-170 -127 -409 -127 q-207 0 -322 86q-33 27 -67 64q-47 51 -74 134t-27 161q0 266 291 420q-10 6 -27 22q-147 133 -147 316q0 162 117.5 247.5t283.5 85.5q168 0 276.5 -80.5t108.5 -244.5q0 -78 -17 -128t-65 -112q-57 -77 -176 -155zM874 268l-331 398q-170 -104 -170 -277q0 -156 149 -221 q43 -16 107 -16q61 0 132.5 34.5t112.5 81.5z" />
<glyph unicode="'" horiz-adv-x="409" d="M276 879h-149l-53 587h258z" />
<glyph unicode="(" horiz-adv-x="681" d="M391 1528h207q-256 -412 -256 -932q0 -451 256 -895h-207q-287 492 -287 938q0 377 287 889z" />
<glyph unicode=")" horiz-adv-x="681" d="M55 1528h205q299 -481 299 -889q0 -240 -69.5 -451t-208.5 -458q-8 -8 -21 -29h-205q256 416 256 932q0 223 -68.5 464t-187.5 431z" />
<glyph unicode="*" horiz-adv-x="909" d="M356 1067l-250 39l66 219l223 -131l-39 272h201l-41 -276l227 127l66 -211l-252 -39l178 -199l-168 -129l-110 244l-115 -244l-170 129z" />
<glyph unicode="+" horiz-adv-x="1351" d="M156 827h426v426h188v-426h426v-188h-426v-426h-188v426h-426v188z" />
<glyph unicode="," horiz-adv-x="569" d="M145 270h279v-270l-96 -274h-187l111 274h-107v270z" />
<glyph unicode="-" horiz-adv-x="757" d="M129 479v203h500v-203h-500z" />
<glyph unicode="." horiz-adv-x="569" d="M424 0h-279v270h279v-270z" />
<glyph unicode="/" horiz-adv-x="796" d="M215 0h-186l538 1466h189z" />
<glyph unicode="0" d="M567 1309q-150 0 -188 -248q-29 -154 -29 -367q0 -150 21 -274q41 -254 202 -254q164 0 199 280q8 94 10 142q4 106 4 160q0 127 -14 235q-18 154 -55 234q-46 92 -150 92zM563 -25q-285 0 -409 287q-80 176 -80 496q0 139 21.5 257t73.5 231.5t155.5 179t249 65.5 t247.5 -70q102 -72 158 -190q86 -182 86 -506q0 -70 -10 -158q-33 -381 -240 -518q-115 -74 -252 -74z" />
<glyph unicode="1" d="M176 954v250q195 131 340 262h266v-1282h191v-184h-672v184h201v1012l-10 -10q-14 -14 -127 -101z" />
<glyph unicode="2" d="M350 1034h-278q8 221 135 339t348 118q215 0 336 -96q61 -49 97 -134t36 -167q0 -84 -33 -166t-68.5 -132.5t-105.5 -133.5q-176 -207 -377 -390q-47 -45 -100 -88h471v215h231v-399h-970v268l293 287q174 178 237 260q45 57 66.5 89t45 87.5t23.5 106.5q0 86 -49 146.5 t-133 60.5q-104 0 -154.5 -80t-50.5 -191z" />
<glyph unicode="3" d="M74 414h282q10 -242 217 -242q43 0 86 24.5t66 61.5q41 63 41 152q0 127 -68 202q-8 10 -19 17.5t-19.5 11.5t-21.5 8t-21.5 5t-25 2t-22.5 1h-24h-23h-53v185q133 -6 208 54t75 191q0 92 -50.5 156t-140.5 64q-100 0 -147 -73t-47 -177h-279q4 72 12 106q31 172 160 250 t315 78q88 0 162 -16q88 -20 160 -82t104 -144q27 -74 27 -141q0 -119 -32.5 -186.5t-131.5 -126.5q-37 -25 -131 -45q111 -14 179.5 -57.5t107.5 -139.5q31 -80 31 -154q0 -164 -82 -262q-84 -98 -209 -133q-96 -29 -199 -29q-219 0 -353 112t-134 327z" />
<glyph unicode="4" d="M649 1217l-403 -664h403v664zM649 375h-604v254l539 837h338v-913h161v-178h-161v-201h145v-174h-612v174h194v201z" />
<glyph unicode="5" d="M104 391h281q2 -96 50 -159.5t140 -63.5q115 0 165.5 81t50.5 202q0 313 -209 313q-78 0 -131.5 -48t-65.5 -126h-264l18 876h865v-196h-609l-10 -455q39 70 113.5 104.5t158.5 34.5q193 0 302.5 -134t109.5 -331q0 -238 -131 -376t-369 -138q-205 0 -335 108.5 t-130 307.5z" />
<glyph unicode="6" d="M1055 1108h-271q0 78 -44 141.5t-119 63.5q-88 0 -146.5 -59.5t-84 -160t-35 -183.5t-9.5 -173q43 96 120 154.5t177 58.5q209 0 317.5 -133t108.5 -346q0 -229 -125 -360q-135 -135 -354 -136q-510 0 -510 727q0 121 15.5 227.5t54 212t101 180.5t163 122t231.5 47 q176 0 290 -103.5t120 -279.5zM590 762q-109 0 -167 -93.5t-58 -207.5q0 -127 56 -219t177 -92q51 0 98 34.5t70 83.5q35 74 35 197q0 121 -50 209t-161 88z" />
<glyph unicode="7" d="M317 1020h-239v446h995v-217l-90 -205q-100 -221 -176 -411q-37 -92 -145 -397l-84 -236h-302l101 266q123 330 166 428l178 396l82 180h-486v-250z" />
<glyph unicode="8" d="M766 764q139 -18 214 -122.5t75 -250.5q0 -209 -132 -312.5t-348 -103.5q-225 0 -358 103.5t-133 322.5q0 139 83 240.5t220 122.5q-285 66 -285 332q0 197 131.5 296t335.5 99q211 0 340 -99.5t129 -301.5q0 -123 -75.5 -213t-196.5 -113zM571 1319q-100 0 -153 -63.5 t-53 -163.5q0 -104 51 -172t151 -68q106 0 156.5 67.5t50.5 178.5q0 96 -54.5 158.5t-148.5 62.5zM571 680q-113 0 -167 -78t-54 -194q0 -109 58.5 -182.5t164.5 -73.5q113 0 172 92q43 63 43 184q0 104 -56.5 178t-160.5 74z" />
<glyph unicode="9" d="M86 354h270q4 -90 46 -147t128 -57q66 0 117 43t79 111.5t42 132t18 126.5q8 102 9 154v12q-88 -217 -314 -217q-90 0 -176 39t-137 108q-96 135 -96 334q0 238 135 371q129 127 344 127q145 0 246 -61q66 -41 95.5 -70t65.5 -90q59 -92 82 -250q18 -111 19 -258 q0 -336 -119 -545q-135 -242 -444 -242q-178 0 -290 101.5t-120 277.5zM551 700q111 0 167 93.5t56 210.5q0 141 -53 217q-68 94 -164 94q-55 0 -106.5 -31t-73.5 -80q-37 -84 -37 -205q0 -123 49 -211t162 -88z" />
<glyph unicode=":" horiz-adv-x="681" d="M479 270v-270h-278v270h278zM201 762v270h278v-270h-278z" />
<glyph unicode=";" horiz-adv-x="681" d="M203 0v270h278v-270l-94 -274h-186l110 274h-108zM203 762v270h278v-270h-278z" />
<glyph unicode="&#x3c;" horiz-adv-x="1351" d="M1219 324v-187l-1106 506v180l1106 510v-188l-922 -414z" />
<glyph unicode="=" horiz-adv-x="1351" d="M156 987h1040v-190h-1040v190zM156 668h1040v-191h-1040v191z" />
<glyph unicode="&#x3e;" horiz-adv-x="1351" d="M113 324l921 407l-921 414v188l1106 -510v-180l-1106 -506v187z" />
<glyph unicode="?" horiz-adv-x="1024" d="M328 1100h-273q-2 49 19 112q43 147 170 222q98 59 262 59q195 0 317.5 -98.5t122.5 -286.5q0 -129 -63 -244l-15 -25q-6 -11 -15 -22.5t-14 -20t-15.5 -19.5l-14.5 -15l-17 -18l-17 -16q-3 -3 -19.5 -18.5t-20.5 -19.5q-90 -88 -112.5 -136t-22.5 -175h-278 q0 174 33.5 254t156.5 207q51 51 76.5 80.5t50.5 83t25 108.5q0 84 -38 140.5t-120 56.5q-129 0 -164 -117q-10 -29 -14 -92zM600 270v-270h-278v270h278z" />
<glyph unicode="@" horiz-adv-x="1802" d="M1499 307l41 -90q-219 -242 -567 -242q-150 0 -298.5 51.5t-256.5 145.5q-113 98 -178.5 245.5t-65.5 301.5q0 317 233.5 544.5t550.5 227.5q276 0 473 -173t197 -444q0 -209 -106 -356q-59 -82 -149.5 -136t-182.5 -54q-125 0 -143 129q-94 -121 -234 -121 q-129 0 -206 95t-77 231q0 176 133.5 329.5t307.5 153.5q66 0 120 -35t78 -92l23 63h145l-149 -487q-18 -59 -19 -88q0 -61 62 -62q45 0 99 36t87 77q96 119 96 299q0 236 -158.5 375t-400.5 139q-270 0 -456 -184q-195 -190 -195 -459q0 -281 191.5 -458t472.5 -177 q315 0 532 215zM840 477q150 0 223 201q39 113 39 190q0 61 -34 100.5t-97 39.5q-119 0 -200 -115t-81 -238q0 -76 39 -127t111 -51z" />
<glyph unicode="A" horiz-adv-x="1593" d="M575 633h404l-201 596h-2zM590 0h-557v184h117l481 1282h336l477 -1282h117v-184h-594v184h176l-92 265h-545l-94 -265h178v-184z" />
<glyph unicode="B" horiz-adv-x="1366" d="M47 1466h737q219 0 326 -84q59 -47 91 -126.5t32 -161.5q0 -141 -74 -228.5t-213 -107.5q145 -4 231.5 -112.5t86.5 -256.5q0 -109 -53.5 -198t-147.5 -140q-96 -51 -367 -51h-649v186h168v1096h-168v184zM612 1282h-116v-440h163q164 0 218 45q76 66 75 180 q0 147 -106 197q-48 18 -234 18zM496 184h188q156 0 219 54q80 72 80 190q0 131 -94 193q-10 6 -20.5 11t-22.5 9l-22 7q-9 3 -24 5l-23 3q-7 1 -23 1h-23h-25h-24h-186v-473z" />
<glyph unicode="C" horiz-adv-x="1478" d="M1372 938h-248q-10 168 -93 266.5t-245 98.5q-111 0 -190.5 -51.5t-120.5 -138.5t-59.5 -179t-18.5 -196.5t16.5 -195.5t54.5 -181.5t116 -143.5t188 -53q145 0 238.5 89t91.5 234h287q-2 -250 -176.5 -381t-432.5 -131q-344 0 -515 212t-171 565q0 205 60.5 353 t144.5 224q96 86 186 124t242 38q295 0 416 -162v137h229v-528z" />
<glyph unicode="D" horiz-adv-x="1517" d="M647 1282h-143v-1098h67q74 0 111 1t94.5 7.5t90 21.5t72.5 40t70.5 65.5t59.5 98.5q18 39 35 104q4 16 7 37t6 45.5t5 36.5q6 49 6 100q0 53 -10 129q-31 201 -149 316q-101 96 -322 96zM643 0h-592v184h172v1098h-172v184h649q211 0 351.5 -56t246.5 -214 q78 -117 109 -297q12 -76 12 -156q0 -397 -205 -579q-113 -98 -249 -131t-322 -33z" />
<glyph unicode="E" horiz-adv-x="1366" d="M1262 0h-1213v184h170v1098h-170v184h1213v-448h-226v264h-536v-446h215v190h194v-559h-194v184h-215v-467h536v283h226v-467z" />
<glyph unicode="F" horiz-adv-x="1290" d="M715 0h-660v184h170v1098h-170v184h1170v-471h-224v287h-495v-475h192v188h193v-571h-193v199h-192v-439h209v-184z" />
<glyph unicode="G" horiz-adv-x="1593" d="M1384 946h-249q-6 158 -99.5 250t-251.5 92q-92 0 -174 -54t-129 -136q-78 -139 -78 -357q0 -238 84 -381q49 -84 131 -134t177 -50q164 0 259 105.5t93 269.5h-189v184h590v-184h-147v-551h-242v168q-61 -96 -174 -144.5t-242 -48.5q-145 0 -252.5 46.5t-203.5 146.5 q-90 92 -142.5 249.5t-52.5 297.5q0 217 70 389q18 43 38.5 78t51.5 76.5t35 48.5q59 70 176 127t256 57q287 0 428 -184v159h237v-520z" />
<glyph unicode="H" horiz-adv-x="1593" d="M676 0h-627v184h168v1098h-168v184h627v-184h-178v-446h594v446h-179v184h629v-184h-170v-1098h170v-184h-629v184h179v467h-594v-467h178v-184z" />
<glyph unicode="I" horiz-adv-x="720" d="M219 1282h-178v184h639v-184h-180v-1098h180v-184h-639v184h178v1098z" />
<glyph unicode="J" horiz-adv-x="1062" d="M47 473h281q0 -12 1 -53t2 -60.5t5 -56.5t15 -56.5t26.5 -42t43.5 -31.5t62 -9q25 0 44.5 6t32.5 20.5t23.5 27.5t15.5 38t9 40t5 45t1 43v42v35v821h-196v184h612v-184h-135v-790q0 -154 -10 -230q-16 -92 -90 -170q-109 -117 -330 -117q-158 0 -264.5 80t-141.5 232 q-6 30 -12 186z" />
<glyph unicode="K" horiz-adv-x="1402" d="M659 0h-614v184h168v1098h-168v184h614v-184h-165v-489l430 489h-138v184h566v-184h-111l-444 -489l473 -609h114v-184h-587v184h145l-448 578v-578h165v-184z" />
<glyph unicode="L" horiz-adv-x="1251" d="M1186 0h-1137v184h172v1098h-172v184h674v-184h-221v-1098h438v334h246v-518z" />
<glyph unicode="M" horiz-adv-x="1933" d="M1884 184v-184h-588v184h156v1096h-2l-375 -1280h-258l-362 1280h-2v-1096h145v-184h-549v184h166v1098h-166v184h604l305 -1136h3l307 1136h616v-184h-166v-1098h166z" />
<glyph unicode="N" horiz-adv-x="1593" d="M631 0h-578v184h170v1098h-170v184h545l545 -1153h2v969h-172v184h577v-184h-159v-1282h-363l-557 1184h-2v-1000h162v-184z" />
<glyph unicode="O" horiz-adv-x="1593" d="M797 1309q-223 0 -332 -201q-70 -125 -70 -365q0 -106 17.5 -200t59.5 -185.5t125 -145.5t198 -54q164 0 270 116q72 78 111 232q20 80 20 239q0 94 -19.5 207t-56.5 172q-114 185 -323 185zM791 1491q334 0 521 -209t187 -541q0 -203 -43 -315q-57 -154 -139 -244 q-195 -207 -520 -207q-330 0 -529 213q-86 92 -131 234.5t-45 282.5q0 360 174 565q96 109 234.5 165t290.5 56z" />
<glyph unicode="P" horiz-adv-x="1290" d="M725 0h-668v184h172v1100h-172v182h693q117 0 198.5 -23.5t151.5 -94.5q123 -129 123 -330q0 -236 -154 -369q-45 -39 -115.5 -58.5t-119 -22.5t-132.5 -3h-192v-381h215v-184zM651 1282h-141v-532h141q51 0 80 2t70 16t67 43q66 72 66 207q0 141 -74 205 q-31 29 -67.5 42t-62.5 15t-79 2z" />
<glyph unicode="Q" horiz-adv-x="1630" d="M1442 180h98v-190h-366q-70 0 -210.5 -7.5t-211.5 -7.5q-168 0 -285 60q-55 27 -119.5 77t-101.5 95q-154 203 -154 514q0 340 176 557q90 104 222.5 158.5t277.5 54.5q154 0 272 -43q211 -88 314 -270q104 -197 104 -422q0 -186 -67.5 -351t-210.5 -247l61 8t70 8 q129 6 131 6zM778 1309q-104 0 -189 -56.5t-130 -152.5q-70 -154 -70 -377q0 -104 17.5 -195.5t57.5 -179.5t119 -139t189 -51q133 0 225.5 92t128 213t35.5 250q0 268 -80 405q-110 191 -303 191z" />
<glyph unicode="R" horiz-adv-x="1402" d="M686 1282h-184v-479h143q162 0 232 63q76 68 75 195q0 117 -84 184q-49 37 -182 37zM672 0h-627v184h176v1100h-176v182h709q115 0 193.5 -15t150.5 -69q139 -102 139 -315q0 -150 -87 -249t-237 -116q121 -16 164 -63t78 -172l80 -283h123v-184h-367q-14 43 -47 180 t-68.5 247t-76.5 155q-8 8 -18.5 15t-23 11t-21.5 6t-24.5 3t-22.5 1h-25h-23h-139v-434h170v-184z" />
<glyph unicode="S" horiz-adv-x="1175" d="M1081 983h-237q0 31 -2 47q-6 129 -70.5 205t-187.5 76q-121 0 -172 -62q-49 -61 -50 -151q0 -43 18.5 -77t56.5 -58.5t66.5 -38t78.5 -29.5l178 -68q137 -49 217 -106q53 -37 78.5 -82t46.5 -119q14 -51 14 -121q0 -158 -88 -262q-109 -162 -377 -162q-250 0 -344 162 v-137h-229v510h241q0 -150 65 -248t204 -98q104 0 171.5 54t67.5 157q0 51 -16 89t-52 63.5t-64.5 40t-84.5 34.5l-188 72q-168 59 -248 139q-96 98 -96 252q0 156 90 278q104 147 344 148q248 0 340 -148v123h229v-483z" />
<glyph unicode="T" horiz-adv-x="1366" d="M313 967h-237v499h1214v-499h-237v307h-230v-1090h197v-184h-676v184h199v1090h-230v-307z" />
<glyph unicode="U" horiz-adv-x="1478" d="M31 1282v184h610v-184h-182v-696q0 -74 1 -108t13 -88t39 -97q76 -123 244 -123q63 0 133 31q94 39 141 190q14 53 14 215v676h-180v184h584v-184h-148v-651v-47v-53q0 -13 -1 -46.5t-4 -53.5l-7 -47q-4 -28 -10 -50.5t-16 -44.5q-70 -160 -218 -244q-55 -33 -146 -51.5 t-169 -18.5q-172 0 -299 70q-119 63 -194 203q-27 49 -41.5 115.5t-15.5 106.5t-1 124v688h-147z" />
<glyph unicode="V" horiz-adv-x="1517" d="M35 1282v184h592v-184h-189l332 -983h2l336 983h-178v184h559v-184h-109l-465 -1282h-313l-461 1282h-106z" />
<glyph unicode="W" horiz-adv-x="2048" d="M57 1282v184h555v-184h-178l205 -983h2l262 1167h332l238 -1167h2l229 983h-182v184h520v-184h-90l-305 -1282h-340l-242 1165h-2l-275 -1165h-342l-290 1282h-99z" />
<glyph unicode="X" horiz-adv-x="1517" d="M586 0h-566v184h109l457 568l-430 530h-105v184h594v-184h-166l303 -397l301 397h-165v184h546v-184h-106l-428 -530l456 -568h105v-184h-606v184h178l-336 432l-324 -432h183v-184z" />
<glyph unicode="Y" horiz-adv-x="1402" d="M31 1282v184h581v-184h-159l264 -471l274 471h-151v184h534v-184h-96l-438 -719v-379h204v-184h-686v184h201v379l-434 719h-94z" />
<glyph unicode="Z" horiz-adv-x="1290" d="M1223 0h-1160v225l814 1063h-562v-293h-231v471h1118v-225l-825 -1063h614v305h232v-483z" />
<glyph unicode="[" horiz-adv-x="681" d="M524 -299h-393v1827h393v-168h-159v-1491h159v-168z" />
<glyph unicode="\" horiz-adv-x="1269" d="M846 0l-625 1466h207l623 -1466h-205z" />
<glyph unicode="]" horiz-adv-x="681" d="M553 -299h-391v168h157v1491h-157v168h391v-1827z" />
<glyph unicode="^" horiz-adv-x="1351" d="M264 360h-186l506 1106h180l510 -1106h-187l-415 908z" />
<glyph unicode="_" horiz-adv-x="1024" d="M1024 -268h-1024v135h1024v-135z" />
<glyph unicode="`" horiz-adv-x="569" d="M-23 1548h277l184 -295h-168z" />
<glyph unicode="a" horiz-adv-x="1175" d="M758 0v174q-45 -98 -135.5 -148.5t-205 -50.5t-209.5 57.5t-114 141.5q-25 78 -24 141q0 152 106 246q39 35 116 63.5t132 30.5q20 0 74.5 5.5t83 5.5t80 -4.5t67.5 -4.5q4 38 4 72t-4 65q-8 60 -51 109t-123 49q-86 0 -131 -53t-43 -143h-270q4 188 125.5 274t318.5 86 q309 0 403 -213q18 -39 26.5 -102.5t8.5 -138.5v-490h142v-172h-377zM737 504h-129q-123 0 -194.5 -42t-71.5 -157q0 -66 39 -108.5t104 -42.5q238 0 252 350z" />
<glyph unicode="b" horiz-adv-x="1290" d="M461 1491v-563q92 188 323 188q223 0 332 -157.5t109 -391.5q0 -211 -82 -385q-10 -20 -31.5 -48t-63.5 -66.5t-112 -65.5t-152 -27q-238 0 -342 207v-182h-397v174h143v1143h-143v174h416zM698 934q-63 0 -118.5 -41t-81.5 -100q-43 -96 -43 -236q0 -70 10 -132.5 t34.5 -125.5t77 -101t125.5 -38q236 0 236 383q0 70 -9 130t-33 123.5t-75 100.5t-123 37z" />
<glyph unicode="c" horiz-adv-x="1062" d="M1024 680h-223q-4 106 -54.5 179t-150.5 73q-244 0 -244 -412q0 -88 20.5 -166t79 -139t148.5 -61q84 0 135 62.5t60 148.5h235q-8 -193 -132 -291.5t-323 -98.5q-252 0 -382 163t-130 421q0 229 125 404q47 68 131 110.5t195 42.5q229 0 301 -153v127h209v-410z" />
<glyph unicode="d" horiz-adv-x="1290" d="M846 0v174q-119 -193 -338 -199q-248 6 -365 199q-80 131 -80 395q0 231 111 389t332 158q215 0 323 -162v363h-141v174h414v-1317h141v-174h-397zM834 557q0 166 -52 254q-70 123 -192 123q-72 0 -122 -38t-73.5 -101.5t-34 -124t-10.5 -127.5q0 -53 5 -101.5 t20.5 -101.5t41 -91t69.5 -63.5t102 -25.5q246 0 246 397z" />
<glyph unicode="e" d="M1073 489h-727q-2 -135 59.5 -235t190.5 -100q80 0 134 49t69 129h260q-8 -115 -82 -198t-177.5 -121t-218 -38t-227.5 52q-96 45 -166 137q-119 154 -118.5 391.5t132.5 399t367 161.5q246 0 383 -145q109 -115 121 -371q3 -49 3 -75q0 -13 -1 -19q0 -2 -1 -8.5t-1 -8.5 zM352 647h447q-2 115 -52.5 207t-154.5 92q-213 0 -240 -299z" />
<glyph unicode="f" horiz-adv-x="720" d="M207 915h-160v175h160v94q0 195 110 264q119 80 279 80q59 0 154 -27v-184q-74 12 -109 12q-90 0 -139 -55q-23 -31 -23 -144v-40h187v-175h-187v-741h180v-174h-600v174h148v741z" />
<glyph unicode="g" horiz-adv-x="1290" d="M1110 915v-835q0 -121 -34 -205t-124 -143q-135 -90 -352 -90q-113 0 -183.5 11t-150.5 54q-51 27 -88 78t-45 111q0 6 -1 18t-1 18h275q8 -25 26 -59q47 -63 150 -63q76 0 145.5 33.5t89.5 99.5q10 29 14.5 63.5t5.5 64t1 64.5v66q-100 -188 -324 -189q-264 0 -383 234 q-61 123 -61 336q0 231 98 364q117 170 340 170q227 0 340 -170v144h405v-175h-143zM596 938q-72 0 -124 -37t-76.5 -99.5t-35 -124t-10.5 -128.5q0 -137 53 -238q66 -121 183 -121q90 0 149.5 61.5t81 140.5t21.5 167q0 147 -56 250q-67 129 -186 129z" />
<glyph unicode="h" horiz-adv-x="1290" d="M602 0h-545v174h140v1143h-140v174h412v-543q57 90 130 129t181 39q176 0 260 -96q76 -86 76 -258v-588h137v-174h-542v174h133v490q0 57 -10 124q-4 59 -47.5 100.5t-102.5 41.5q-135 0 -186 -139q-29 -72 -29 -232v-385h133v-174z" />
<glyph unicode="i" horiz-adv-x="681" d="M621 0h-545v174h145v741h-145v175h418v-916h127v-174zM221 1505h273v-250h-273v250z" />
<glyph unicode="j" horiz-adv-x="606" d="M35 1090h418v-1135q0 -158 -33 -219q-74 -92 -285 -92q-25 0 -74 6t-73 6v180q45 -8 69 -8q43 0 70 12.5t37 39t13 51t3 67.5v917h-145v175zM453 1505v-250h-273v250h273z" />
<glyph unicode="k" horiz-adv-x="1251" d="M578 0h-531v174h141v1143h-141v174h414v-889l358 322h-157v166h534v-175h-125l-260 -221l293 -520h110v-174h-501v166h118l-200 352l-170 -143v-209h117v-166z" />
<glyph unicode="l" horiz-adv-x="681" d="M618 0h-542v174h139v1143h-139v174h411v-1317h131v-174z" />
<glyph unicode="m" horiz-adv-x="1933" d="M459 1090v-179q102 205 342 205q233 0 303 -205q88 205 317 205q238 0 320 -205q10 -25 14 -50t5 -38.5t0 -43t-1 -38.5v-567h133v-174h-534v174h129v485q0 51 -5 89t-20.5 80t-49.5 64.5t-87 22.5q-121 0 -172 -110q-35 -72 -35 -211v-420h127v-174h-524v174h125v504 q0 109 -27 166q-14 31 -49 51t-72 20q-156 0 -206 -172q-14 -53 -15 -159v-410h131v-174h-547v174h144v741h-144v175h398z" />
<glyph unicode="n" horiz-adv-x="1290" d="M455 1090v-179q102 205 327 205q121 0 210 -62.5t110 -142.5q14 -57 14 -147v-590h135v-174h-534v174h127v490q0 102 -15 149q-14 51 -53 83t-92 32q-57 0 -98 -21.5t-62.5 -52.5t-33 -81t-14.5 -89t-3 -94v-416h131v-174h-547v174h144v741h-144v175h398z" />
<glyph unicode="o" horiz-adv-x="1175" d="M590 936q-92 0 -150.5 -68.5t-78 -150.5t-19.5 -170q0 -156 51 -254q70 -137 201 -137q135 0 203 153q39 90 39 241.5t-50 250.5q-69 135 -196 135zM590 -25q-115 0 -227.5 48.5t-180.5 132.5q-125 156 -125 397q0 254 144 408q70 76 172 115.5t209 39.5 q256 0 397 -158.5t141 -414.5q0 -244 -142 -406t-388 -162z" />
<glyph unicode="p" horiz-adv-x="1290" d="M446 1090v-185q109 211 322 211q123 0 211 -51t164 -160q80 -119 80 -346q0 -131 -20.5 -219t-82.5 -188q-51 -82 -148.5 -129.5t-199.5 -47.5q-195 0 -309 189v-322h153v-174h-569v174h143v1073h-143v175h399zM707 938q-63 0 -115.5 -38t-79.5 -93q-66 -125 -66 -266 q0 -88 21.5 -169t81 -146.5t149.5 -65.5q70 0 120 34.5t76 93t37 118t11 124.5q0 70 -9 131.5t-31.5 129t-72.5 107.5t-122 40z" />
<glyph unicode="q" horiz-adv-x="1290" d="M827 -158v322q-100 -188 -311 -189q-106 0 -204.5 49.5t-149.5 137.5q-96 166 -96 397q0 201 77 346q45 84 133.5 147.5t217.5 63.5t213 -48t137 -163v185h397v-175h-141v-1073h141v-174h-567v174h153zM838 541q0 68 -11.5 131t-38 125.5t-80 101.5t-125 39t-121.5 -40 t-72.5 -106.5t-32 -128t-9.5 -131.5q0 -90 17.5 -167.5t75 -141t149.5 -63.5q90 0 148.5 65.5t79 146.5t20.5 169z" />
<glyph unicode="r" horiz-adv-x="833" d="M457 1090v-232q58 253 308 253q26 0 54 -3v-266q-61 16 -96 16q-76 0 -136.5 -42t-86.5 -111q-27 -74 -27 -250v-281h174v-174h-590v174h144v741h-144v175h400z" />
<glyph unicode="s" horiz-adv-x="1024" d="M918 739h-201q-23 213 -187 213q-74 0 -122 -34.5t-48 -104.5q0 -45 33 -84l62 -31q18 -6 129.5 -27.5t181.5 -50t106 -73.5q76 -92 76 -217q2 -49 -17.5 -112.5t-49.5 -106.5q-41 -55 -127 -95.5t-195 -40.5q-80 0 -153.5 36t-114.5 100v-111h-197v379h213 q14 -229 213 -229q59 0 106.5 37.5t47.5 97.5q0 84 -53 110q-53 25 -189.5 52.5t-200.5 70.5q-139 96 -139 285q-1 9 -1 17q0 33 12 69q15 45 23.5 58.5t37.5 51.5q33 45 122 81t181 36q74 0 145.5 -30.5t112.5 -86.5v91h193v-351z" />
<glyph unicode="t" horiz-adv-x="833" d="M784 360v-73q0 -236 -176 -291q-55 -20 -112 -21q-47 0 -125 21q-133 41 -166 186q-8 37 -8 191v542h-162v175h162v186l272 92v-278h272v-175h-272v-682q0 -18 9 -40.5t24 -28.5q22 -9 40 -10q17 0 30 9q28 17 35 53t10 76q1 17 2 32q0 20 -3 36h168z" />
<glyph unicode="u" horiz-adv-x="1290" d="M831 0v182q-41 -102 -127 -154.5t-198 -52.5q-119 0 -202 58.5t-111 148.5q-14 119 -15 193v540h-139v175h412v-650q0 -137 26 -190q37 -76 137 -76q117 0 174 139q25 63 25 236v366h-147v175h419v-916h144v-174h-398z" />
<glyph unicode="v" horiz-adv-x="1214" d="M31 915v175h512v-175h-135l202 -694h2l230 694h-137v175h479v-175h-84l-322 -915h-338l-323 915h-86z" />
<glyph unicode="w" horiz-adv-x="1896" d="M35 1090h520v-175h-145l155 -704h2l232 879h331l203 -879h2l185 704h-140v175h484v-175h-101l-262 -915h-344l-196 817l-224 -817h-344l-262 915h-96v175z" />
<glyph unicode="x" horiz-adv-x="1214" d="M694 0v164h121l-229 301l-236 -301h121v-164h-446v174h84l313 389l-277 352h-100v175h492v-164h-115l209 -264l207 264h-115v164h451v-175h-101l-287 -352l310 -389h90v-174h-492z" />
<glyph unicode="y" horiz-adv-x="1214" d="M31 915v175h522v-175h-141l209 -575l10 -27l209 602h-135v175h483v-175h-86l-389 -983q-57 -150 -125 -220t-209 -70q-111 0 -164 10v188l111 -6q70 0 97.5 23.5t55.5 93.5l15 35l-375 929h-88z" />
<glyph unicode="z" horiz-adv-x="1062" d="M969 0h-879v211l576 715h-351v-174h-209v338h863v-201l-584 -725h375v201h209v-365z" />
<glyph unicode="{" horiz-adv-x="655" d="M440 346v-399q0 -104 34 -159.5t126 -86.5h-43h-44q-9 0 -38 1t-42 5l-35.5 10.5t-41 15.5t-37.5 21q-53 37 -68 92.5t-15 139.5v399q0 41 -1.5 60.5t-11.5 47t-30 54.5q-41 51 -119 74q57 10 104 47q29 23 42 56.5t14.5 56t1.5 71.5v354q0 182 61 248q37 37 98.5 54.5 t92 18.5t112.5 1q-88 -29 -124 -86.5t-36 -159.5v-375q0 -127 -34.5 -194.5t-143.5 -91.5q104 -27 141 -91.5t37 -183.5z" />
<glyph unicode="|" horiz-adv-x="1351" d="M582 0v1466h188v-1466h-188z" />
<glyph unicode="}" horiz-adv-x="655" d="M233 907v375q0 102 -34.5 159.5t-122.5 84.5h104q51 0 105.5 -17.5t91.5 -54.5q61 -66 61 -248v-354q0 -49 1 -71.5t14.5 -56.5t42.5 -56q47 -37 104 -47q-78 -23 -119 -74q-29 -37 -36 -70t-7 -92v-399q0 -84 -15 -139.5t-69 -92.5q-18 -12 -36.5 -21t-41 -15.5 l-36 -10.5t-42 -5t-37.5 -1h-44h-41q90 31 123.5 86t33.5 160v399q0 119 37 183.5t142 91.5q-106 25 -142.5 93t-36.5 193z" />
<glyph unicode="~" horiz-adv-x="1351" d="M1112 918l148 -95l-54 -73q-14 -20 -52 -62.5t-65.5 -60t-71.5 -32.5t-91 -15q-76 0 -213 51l-99 39q-12 4 -40.5 15l-46 17.5t-43 11.5t-44.5 5q-23 0 -41 -4t-35 -17l-30 -21q-12 -9 -28.5 -30.5t-22.5 -31.5l-24 -35l-21 -33l-148 96q76 119 155 187.5t191 68.5 q94 0 265 -68.5t225 -68.5q23 0 43 8t33.5 16.5t34 31t26.5 30.5t26.5 38t22.5 32z" />
<glyph unicode="&#xa0;" horiz-adv-x="569" d="M0 0z" />
<glyph unicode="&#xa1;" horiz-adv-x="681" d="M483 864h-278v271h278v-271zM500 -338h-316l56 1061h209z" />
<glyph unicode="&#xa2;" d="M1024 684h-223q-4 106 -54.5 179t-150.5 73q-244 0 -244 -412q0 -88 20.5 -165.5t79 -139t148.5 -61.5q84 0 135 62.5t60 148.5h235q-8 -174 -111.5 -272.5t-277.5 -116.5v-179h-180v185q-195 35 -296.5 192.5t-101.5 384.5q0 213 101.5 373t296.5 182v191h180v-203 q123 -29 174 -139v125h209v-408z" />
<glyph unicode="&#xa3;" d="M207 694h-160v185h160v63q0 178 14 252q31 150 153 223.5t285 73.5q408 0 414 -383h-260q4 111 -54.5 168t-162.5 22q-39 -16 -62.5 -44.5t-32.5 -73.5t-11.5 -74t-2.5 -82v-18v-127h226v-185h-226v-510h326v234h250v-418h-1006v184h150v510z" />
<glyph unicode="&#xa4;" d="M45 319l113 111q-84 113 -84 272.5t84 272.5l-111 108l141 142l107 -109q121 84 276 84q143 0 277 -82l106 107l142 -142l-109 -106q82 -117 82 -277q0 -135 -82 -272l109 -109l-142 -137l-106 107q-133 -86 -273 -86q-154 0 -278 86l-109 -107zM571.5 975 q-112.5 0 -192.5 -80t-80 -192.5t79 -193.5t191.5 -81t193.5 79t81 191q0 115 -80 196t-192.5 81z" />
<glyph unicode="&#xa5;" d="M-102 1282v184h581v-184h-160l265 -471l274 471h-151v184h534v-184h-96l-244 -401h277v-113h-347l-67 -92h414v-113h-471v-379h204v-184h-686v184h201v379h-471v113h414l-66 92h-348v113h281l-244 401h-94z" />
<glyph unicode="&#xa6;" horiz-adv-x="1351" d="M582 0v586h188v-586h-188zM582 881v585h188v-585h-188z" />
<glyph unicode="&#xa7;" d="M991 1126h-258q4 82 -41 135.5t-125 53.5q-70 0 -115.5 -34t-45.5 -101q0 -43 28 -78q16 -18 40 -33.5t40 -24t50 -22.5l44 -18l199 -86q213 -92 213 -291q0 -82 -48 -150.5t-124 -95.5q68 -35 112 -106.5t44 -147.5q0 -78 -39 -149.5t-103 -116.5q-109 -76 -280 -76 q-115 0 -213.5 31.5t-169 113.5t-66.5 201h264q12 -178 193 -178q66 0 102 31q49 41 49 96q0 53 -25.5 81.5t-80.5 53.5l-174 70l-100 43q-28 12 -86 47t-83.5 64.5t-48 79.5t-22.5 110q0 76 41 142.5t108 98.5q8 8 31 13q-6 2 -14 8t-15 10q-123 92 -122 232 q0 160 117.5 259t279.5 99q399 0 444 -365zM565 489l117 -47q4 2 10 8.5t10 8.5q76 80 76 133q0 55 -29.5 87t-89.5 56l-210 88q-41 -18 -66 -58t-25 -85q0 -43 16.5 -74t56.5 -54.5t59.5 -33t74.5 -29.5z" />
<glyph unicode="&#xa8;" horiz-adv-x="569" d="M-47 1268v237h237v-237h-237zM379 1268v237h237v-237h-237z" />
<glyph unicode="&#xa9;" horiz-adv-x="1679" d="M1595 739q0 -322 -220 -543t-541 -221q-309 0 -529.5 223.5t-220.5 534.5q0 313 221 535.5t537 222.5q311 0 532 -221.5t221 -530.5zM842 78v4q266 -2 458.5 187.5t192.5 457.5q0 279 -190.5 470.5t-464.5 191.5q-268 0 -460 -192.5t-192 -461.5q0 -272 193 -464.5 t463 -192.5zM1130 580l121 -39q-41 -123 -155.5 -188.5t-253.5 -65.5q-195 0 -312.5 122.5t-117.5 315.5q0 203 128 334t328 131q131 0 244 -64.5t139 -183.5l-137 -31q-16 94 -83.5 143.5t-168.5 49.5q-150 0 -232.5 -108.5t-82.5 -262t81 -257t230 -103.5 q100 0 169.5 54.5t102.5 152.5z" />
<glyph unicode="&#xaa;" horiz-adv-x="704" d="M453 791v106q-55 -121 -222 -121q-57 0 -108 23q-39 16 -84 63q-33 37 -33 119q0 92 70 149q25 23 74 39.5t86 18.5q12 0 32.5 2t38 3t31.5 1q4 0 96 -6q23 178 -112 178q-57 0 -86 -31.5t-27 -85.5h-176q2 113 82 165t207 52q203 0 262 -129q12 -29 18 -61q4 -57 4 -84 v-295h92v-106h-245zM440 1096h-84q-174 0 -174 -121q0 -39 25.5 -64.5t68.5 -25.5q156 0 164 211zM6 528v131h692v-131h-692z" />
<glyph unicode="&#xab;" horiz-adv-x="1024" d="M287 135l-170 447l170 440h198l-168 -440l168 -447h-198zM662 135l-177 447l177 440h198l-170 -440l170 -447h-198z" />
<glyph unicode="&#xac;" horiz-adv-x="1351" d="M1006 356v441h-850v190h1040v-631h-190z" />
<glyph unicode="&#xad;" horiz-adv-x="757" d="M129 479v203h500v-203h-500z" />
<glyph unicode="&#xae;" horiz-adv-x="1679" d="M1595 731q0 -313 -223 -534.5t-536 -221.5q-311 0 -531.5 223.5t-220.5 537t222 534.5t535.5 221t533.5 -223.5t220 -536.5zM846 78q266 0 456.5 194.5t190.5 462.5q0 272 -193.5 463t-463.5 188q-266 2 -458 -190t-192 -461q0 -274 193 -465.5t467 -191.5zM987 700 l258 -407h-147l-244 407h-197v-407h-129v899h414q143 0 213 -41q106 -57 107 -205q0 -123 -74 -182.5t-201 -63.5zM657 797h236q70 0 116 8t86 45t40 104q0 147 -226 148h-252v-305z" />
<glyph unicode="&#xaf;" horiz-adv-x="569" d="M582 1323h-592v133h592v-133z" />
<glyph unicode="&#xb0;" horiz-adv-x="819" d="M717 1184q0 -127 -90 -217t-217 -90t-217.5 90t-90.5 217q-2 127 89.5 217t218.5 90t217 -90t90 -217zM600 1184q0 78 -56.5 134t-135.5 56q-78 0 -133.5 -56t-55.5 -134q0 -80 55.5 -135.5t135.5 -55.5q78 0 134 55.5t56 135.5z" />
<glyph unicode="&#xb1;" horiz-adv-x="1351" d="M156 858h426v395h188v-395h426v-188h-426v-396h-188v396h-426v188zM156 0v188h1040v-188h-1040z" />
<glyph unicode="&#xb2;" horiz-adv-x="681" d="M657 596h-630v162l190 172q98 90 154 155q88 104 88 170q0 51 -32 87t-87 36q-68 0 -100.5 -48t-32.5 -113h-180q6 133 87 203.5t226 70.5q137 0 219 -57q39 -31 62.5 -81t23.5 -100q0 -51 -21.5 -100t-45 -80t-68.5 -80q-123 -133 -244 -233l-65 -53h305v129h151v-240z " />
<glyph unicode="&#xb3;" horiz-adv-x="681" d="M315 991h-34v111q184 -10 184 147q0 53 -33 92t-92 39q-63 0 -94 -43t-31 -106h-182q4 45 8 63q39 197 309 197q61 0 105 -10q129 -29 172 -135q18 -47 18 -84q0 -72 -21.5 -113t-84.5 -76q-31 -16 -86 -24v-5q74 -8 117.5 -33.5t68.5 -82.5q20 -49 20 -92 q0 -96 -53 -158q-53 -55 -135 -80q-74 -16 -131 -16q-143 0 -229 66.5t-86 195.5h182q6 -143 141 -144q68 0 98 52q27 37 27 90q0 78 -43 123q-29 26 -115 26z" />
<glyph unicode="&#xb4;" horiz-adv-x="569" d="M131 1253l184 295h277l-293 -295h-168z" />
<glyph unicode="&#xb5;" horiz-adv-x="1290" d="M1085 174h144v-174h-398v182h-4q-37 -102 -123 -154.5t-198 -52.5q-66 0 -70 -36.5t15 -90.5q12 -72 -34 -126t-104 -54q-59 0 -95 53.5t-40 126.5q-2 31 25.5 114t21.5 124q-2 18 -24.5 124.5t-22.5 164.5v540h-139v175h412v-650q0 -137 26 -190q37 -76 137 -76 q117 0 174 139q25 63 25 236v366h-147v175h419v-916z" />
<glyph unicode="&#xb6;" horiz-adv-x="1105" d="M453 1466h655v-233h-141v-1493h-185v1493h-200v-1493h-185v995q-154 4 -259 107.5t-105 257.5q0 168 125 276q61 53 129 71.5t166 18.5z" />
<glyph unicode="&#xb7;" horiz-adv-x="569" d="M145 866h279v-270h-279v270z" />
<glyph unicode="&#xb8;" horiz-adv-x="569" d="M55 -385l39 80q119 -49 201 -35q4 2 11 5t10 4t8.5 3t8.5 4t7 7l8 8q4 4 8 10q18 49 -8 79t-78 30q-41 0 -71 -15q-4 0 -9 -4l-43 41l115 182h103l-84 -135q113 16 174 -20q68 -41 67 -113q0 -39 -21.5 -81t-54.5 -60q-78 -39 -161 -39q-27 0 -49.5 2t-48.5 8l-39 9 q-13 3 -47 15z" />
<glyph unicode="&#xb9;" horiz-adv-x="681" d="M84 1184v149q139 90 221 158h172v-770h123v-111h-436v111h131v608l-6 -6q-2 -2 -84 -61q-23 -16 -67 -44z" />
<glyph unicode="&#xba;" horiz-adv-x="704" d="M352 1358q-86 0 -124 -75t-38 -163q0 -94 35 -153q41 -82 131 -82q86 0 131 92q25 57 25 147q0 88 -33 150q-43 84 -127 84zM352 774q-74 0 -147.5 28.5t-118.5 80.5q-80 96 -80 241q0 156 92 248q98 94 248 94q166 0 258 -96t92 -252q0 -147 -93 -245.5t-251 -98.5z M6 528v131h690v-131h-690z" />
<glyph unicode="&#xbb;" horiz-adv-x="1024" d="M524 135l168 447l-168 440h201l188 -440l-188 -447h-201zM152 135l167 447l-167 440h198l174 -440l-174 -447h-198z" />
<glyph unicode="&#xbc;" horiz-adv-x="1708" d="M51 1184v149q139 90 221 158h172v-770h123v-111h-436v111h131v608l-6 -6q-2 -2 -84 -61q-23 -16 -67 -44zM1374 729l-262 -397h262v397zM1374 225h-391v152l350 504h219v-549h105v-107h-105v-121h95v-104h-398v104h125v121zM573 0h-167l794 1466h164z" />
<glyph unicode="&#xbd;" horiz-adv-x="1708" d="M51 1184v149q139 90 221 158h172v-770h123v-111h-436v111h131v608l-6 -6q-2 -2 -84 -61q-23 -16 -67 -44zM1657 0h-631v162l191 172q98 90 153 155q88 104 88 170q0 51 -31.5 87t-87.5 36q-68 0 -100.5 -48t-32.5 -113h-180q6 133 87 203.5t226 70.5q137 0 220 -57 q39 -31 62.5 -81t23.5 -100q0 -51 -21.5 -100t-45.5 -80t-69 -80q-123 -133 -243 -233l-66 -53h305v129h152v-240zM532 0h-167l794 1466h164z" />
<glyph unicode="&#xbe;" horiz-adv-x="1708" d="M1374 729l-262 -397h262v397zM1374 225h-391v152l350 504h219v-549h105v-107h-105v-121h95v-104h-398v104h125v121zM594 0h-168l795 1466h163zM342 991h-35v111q184 -10 185 147q0 53 -33 92t-92 39q-63 0 -94 -43t-31 -106h-183q4 45 9 63q39 197 309 197q61 0 104 -10 q129 -29 172 -135q18 -47 19 -84q0 -72 -21.5 -113t-85.5 -76q-31 -16 -86 -24v-5q74 -8 118 -33.5t69 -82.5q20 -49 20 -92q0 -96 -53 -158q-53 -55 -135 -80q-74 -16 -131 -16q-143 0 -229.5 66.5t-86.5 195.5h182q8 -143 142 -144q68 0 98 52q27 37 27 90q0 78 -43 123 q-29 26 -115 26z" />
<glyph unicode="&#xbf;" horiz-adv-x="1024" d="M690 35h273q-4 -190 -130 -291.5t-321 -101.5q-199 0 -319.5 101t-120.5 296q0 119 54 214t155 191q94 90 117.5 138.5t19.5 173.5h278q0 -63 -8 -115q-4 -82 -30.5 -144.5t-53 -94t-100.5 -107.5q-55 -57 -80 -87t-48.5 -83t-23.5 -115q0 -84 49 -139q39 -43 125 -43 q82 0 121 60.5t43 146.5zM418 870v271h278v-271h-278z" />
<glyph unicode="&#xc0;" horiz-adv-x="1593" d="M575 633h404l-201 596h-2zM590 0h-557v184h117l481 1282h336l477 -1282h117v-184h-594v184h176l-92 265h-545l-94 -265h178v-184zM489 1925h277l184 -295h-168z" />
<glyph unicode="&#xc1;" horiz-adv-x="1593" d="M575 633h404l-201 596h-2zM590 0h-557v184h117l481 1282h336l477 -1282h117v-184h-594v184h176l-92 265h-545l-94 -265h178v-184zM643 1630l184 295h277l-293 -295h-168z" />
<glyph unicode="&#xc2;" horiz-adv-x="1593" d="M575 633h404l-201 596h-2zM590 0h-557v184h117l481 1282h336l477 -1282h117v-184h-594v184h176l-92 265h-545l-94 -265h178v-184zM797 1812l-146 -182h-186l217 295h227l221 -295h-190z" />
<glyph unicode="&#xc3;" horiz-adv-x="1593" d="M575 633h404l-201 596h-2zM590 0h-557v184h117l481 1282h336l477 -1282h117v-184h-594v184h176l-92 265h-545l-94 -265h178v-184zM1040 1896h117q-4 -25 -8 -34q-43 -203 -221 -203q-35 0 -158 41q-104 35 -135 35q-41 0 -66 -35q-8 -8 -14 -29.5t-8 -25.5h-113q0 8 4 23 t4 24q2 4 11.5 28.5t13.5 36.5q25 55 74 91t106 36q68 0 162 -39t129 -39q39 0 68 21q2 2 6 7l7 9q3 4 5 8t6 14.5t6 14.5q0 4 2 8t2 8z" />
<glyph unicode="&#xc4;" horiz-adv-x="1593" d="M575 633h404l-201 596h-2zM590 0h-557v184h117l481 1282h336l477 -1282h117v-184h-594v184h176l-92 265h-545l-94 -265h178v-184zM465 1645v237h237v-237h-237zM891 1645v237h237v-237h-237z" />
<glyph unicode="&#xc5;" horiz-adv-x="1593" d="M575 633h404l-201 596h-2zM590 0h-557v184h117l481 1282h336l477 -1282h117v-184h-594v184h176l-92 265h-545l-94 -265h178v-184zM797 1599q-86 0 -149.5 62.5t-63.5 148.5t62.5 149.5t148.5 63.5q84 0 149.5 -60t65.5 -144q0 -88 -62.5 -154t-150.5 -66zM797 1702 q45 0 78.5 35t33.5 80q0 43 -35.5 76.5t-78.5 33.5q-45 0 -78 -34.5t-33 -80t34 -78t79 -32.5z" />
<glyph unicode="&#xc6;" horiz-adv-x="2048" d="M711 1466h1235v-446h-224v262h-579l65 -448h209v192h193v-559h-193v182h-180l76 -465h420v283h225v-467h-1090v184h183l-41 256h-514l-117 -256h158v-184h-508v184h80zM586 649h393l-102 645h-3z" />
<glyph unicode="&#xc7;" horiz-adv-x="1478" d="M1372 938h-248q-10 168 -93 266.5t-245 98.5q-111 0 -190.5 -51.5t-120.5 -138.5t-59.5 -179t-18.5 -196.5t16.5 -195.5t54.5 -181.5t116 -143.5t188 -53q145 0 238.5 89t91.5 234h287q-2 -250 -176.5 -381t-432.5 -131q-344 0 -515 212t-171 565q0 205 60.5 353 t144.5 224q96 86 186 124t242 38q295 0 416 -162v137h229v-528zM510 -385l39 80q119 -49 201 -35q4 2 11 5t10 4t8 3t8.5 4t7.5 7l8 8q4 4 8 10q18 49 -8.5 79t-77.5 30q-41 0 -72 -15q-4 0 -8 -4l-43 41l115 182h102l-84 -135q113 16 174 -20q68 -41 68 -113 q0 -39 -21.5 -81t-54.5 -60q-78 -39 -162 -39q-27 0 -49 2t-48 8l-39 9q-13 3 -47 15z" />
<glyph unicode="&#xc8;" horiz-adv-x="1366" d="M1262 0h-1213v184h170v1098h-170v184h1213v-448h-226v264h-536v-446h215v190h194v-559h-194v184h-215v-467h536v283h226v-467zM377 1925h276l185 -295h-168z" />
<glyph unicode="&#xc9;" horiz-adv-x="1366" d="M1262 0h-1213v184h170v1098h-170v184h1213v-448h-226v264h-536v-446h215v190h194v-559h-194v184h-215v-467h536v283h226v-467zM530 1630l185 295h276l-293 -295h-168z" />
<glyph unicode="&#xca;" horiz-adv-x="1366" d="M1262 0h-1213v184h170v1098h-170v184h1213v-448h-226v264h-536v-446h215v190h194v-559h-194v184h-215v-467h536v283h226v-467zM684 1812l-145 -182h-187l217 295h228l221 -295h-191z" />
<glyph unicode="&#xcb;" horiz-adv-x="1366" d="M1262 0h-1213v184h170v1098h-170v184h1213v-448h-226v264h-536v-446h215v190h194v-559h-194v184h-215v-467h536v283h226v-467zM352 1645v237h238v-237h-238zM778 1645v237h238v-237h-238z" />
<glyph unicode="&#xcc;" horiz-adv-x="720" d="M219 1282h-178v184h639v-184h-180v-1098h180v-184h-639v184h178v1098zM53 1925h277l184 -295h-168z" />
<glyph unicode="&#xcd;" horiz-adv-x="720" d="M219 1282h-178v184h639v-184h-180v-1098h180v-184h-639v184h178v1098zM207 1630l184 295h277l-293 -295h-168z" />
<glyph unicode="&#xce;" horiz-adv-x="720" d="M219 1282h-178v184h639v-184h-180v-1098h180v-184h-639v184h178v1098zM360 1812l-145 -182h-186l217 295h227l221 -295h-190z" />
<glyph unicode="&#xcf;" horiz-adv-x="720" d="M219 1282h-178v184h639v-184h-180v-1098h180v-184h-639v184h178v1098zM29 1645v237h237v-237h-237zM455 1645v237h237v-237h-237z" />
<glyph unicode="&#xd0;" horiz-adv-x="1517" d="M504 1282v-446h262v-185h-262v-467h67q74 0 111 1t94.5 7.5t90 21.5t72.5 40t70.5 65.5t59.5 98.5q18 39 35 104q4 16 7 37t6 45.5t5 36.5q6 49 6 100q0 53 -10 129q-31 201 -149 316q-100 96 -322 96h-143zM223 184v467h-172v185h172v446h-172v184h649q211 0 351.5 -56 t246.5 -214q78 -117 109 -297q12 -76 12 -156q0 -397 -205 -579q-113 -98 -249 -131t-322 -33h-592v184h172z" />
<glyph unicode="&#xd1;" horiz-adv-x="1593" d="M631 0h-578v184h170v1098h-170v184h545l545 -1153h2v969h-172v184h577v-184h-159v-1282h-363l-557 1184h-2v-1000h162v-184zM1040 1896h117q-4 -25 -8 -34q-43 -203 -221 -203q-35 0 -158 41q-104 35 -135 35q-41 0 -66 -35q-8 -8 -14 -29.5t-8 -25.5h-113q0 8 4 23t4 24 q2 4 11.5 28.5t13.5 36.5q25 55 74 91t106 36q68 0 162 -39t129 -39q39 0 68 21q2 2 6 7l7 9q3 4 5 8t6 14.5t6 14.5q0 4 2 8t2 8z" />
<glyph unicode="&#xd2;" horiz-adv-x="1593" d="M797 1309q-223 0 -332 -201q-70 -125 -70 -365q0 -106 17.5 -200t59.5 -185.5t125 -145.5t198 -54q164 0 270 116q72 78 111 232q20 80 20 239q0 94 -19.5 207t-56.5 172q-114 185 -323 185zM791 1491q334 0 521 -209t187 -541q0 -203 -43 -315q-57 -154 -139 -244 q-195 -207 -520 -207q-330 0 -529 213q-86 92 -131 234.5t-45 282.5q0 360 174 565q96 109 234.5 165t290.5 56zM489 1925h277l184 -295h-168z" />
<glyph unicode="&#xd3;" horiz-adv-x="1593" d="M797 1309q-223 0 -332 -201q-70 -125 -70 -365q0 -106 17.5 -200t59.5 -185.5t125 -145.5t198 -54q164 0 270 116q72 78 111 232q20 80 20 239q0 94 -19.5 207t-56.5 172q-114 185 -323 185zM791 1491q334 0 521 -209t187 -541q0 -203 -43 -315q-57 -154 -139 -244 q-195 -207 -520 -207q-330 0 -529 213q-86 92 -131 234.5t-45 282.5q0 360 174 565q96 109 234.5 165t290.5 56zM643 1630l184 295h277l-293 -295h-168z" />
<glyph unicode="&#xd4;" horiz-adv-x="1593" d="M797 1309q-223 0 -332 -201q-70 -125 -70 -365q0 -106 17.5 -200t59.5 -185.5t125 -145.5t198 -54q164 0 270 116q72 78 111 232q20 80 20 239q0 94 -19.5 207t-56.5 172q-114 185 -323 185zM791 1491q334 0 521 -209t187 -541q0 -203 -43 -315q-57 -154 -139 -244 q-195 -207 -520 -207q-330 0 -529 213q-86 92 -131 234.5t-45 282.5q0 360 174 565q96 109 234.5 165t290.5 56zM797 1812l-146 -182h-186l217 295h227l221 -295h-190z" />
<glyph unicode="&#xd5;" horiz-adv-x="1593" d="M797 1309q-223 0 -332 -201q-70 -125 -70 -365q0 -106 17.5 -200t59.5 -185.5t125 -145.5t198 -54q164 0 270 116q72 78 111 232q20 80 20 239q0 94 -19.5 207t-56.5 172q-114 185 -323 185zM791 1491q334 0 521 -209t187 -541q0 -203 -43 -315q-57 -154 -139 -244 q-195 -207 -520 -207q-330 0 -529 213q-86 92 -131 234.5t-45 282.5q0 360 174 565q96 109 234.5 165t290.5 56zM1040 1896h117q-4 -25 -8 -34q-43 -203 -221 -203q-35 0 -158 41q-104 35 -135 35q-41 0 -66 -35q-8 -8 -14 -29.5t-8 -25.5h-113q0 8 4 23t4 24q2 4 11.5 28.5 t13.5 36.5q25 55 74 91t106 36q68 0 162 -39t129 -39q39 0 68 21q2 2 6 7l7 9q3 4 5 8t6 14.5t6 14.5q0 4 2 8t2 8z" />
<glyph unicode="&#xd6;" horiz-adv-x="1593" d="M797 1309q-223 0 -332 -201q-70 -125 -70 -365q0 -106 17.5 -200t59.5 -185.5t125 -145.5t198 -54q164 0 270 116q72 78 111 232q20 80 20 239q0 94 -19.5 207t-56.5 172q-114 185 -323 185zM791 1491q334 0 521 -209t187 -541q0 -203 -43 -315q-57 -154 -139 -244 q-195 -207 -520 -207q-330 0 -529 213q-86 92 -131 234.5t-45 282.5q0 360 174 565q96 109 234.5 165t290.5 56zM465 1645v237h237v-237h-237zM891 1645v237h237v-237h-237z" />
<glyph unicode="&#xd7;" horiz-adv-x="1351" d="M156 346l387 387l-387 387l133 133l387 -387l387 387l133 -133l-387 -387l387 -387l-133 -133l-387 387l-387 -387z" />
<glyph unicode="&#xd8;" horiz-adv-x="1593" d="M444 428l648 739q-111 141 -295 142q-223 0 -332 -201q-70 -125 -70 -365q0 -186 49 -315zM1149 1061l-651 -746q100 -158 297 -157q164 0 270 116q72 78 111 232q20 80 20 239q0 183 -47 316zM1473 1430l-146 -164q172 -203 172 -525q0 -203 -43 -315 q-57 -154 -139 -244q-195 -207 -520 -207q-281 0 -461 152l-152 -174l-90 70l160 184q-80 94 -121 229t-41 269q0 360 174 565q96 109 234.5 165t290.5 56q279 0 454 -148l137 156z" />
<glyph unicode="&#xd9;" horiz-adv-x="1478" d="M31 1282v184h610v-184h-182v-696q0 -74 1 -108t13 -88t39 -97q76 -123 244 -123q63 0 133 31q94 39 141 190q14 53 14 215v676h-180v184h584v-184h-148v-651v-47v-53q0 -13 -1 -46.5t-4 -53.5l-7 -47q-4 -28 -10 -50.5t-16 -44.5q-70 -160 -218 -244q-55 -33 -146 -51.5 t-169 -18.5q-172 0 -299 70q-119 63 -194 203q-27 49 -41.5 115.5t-15.5 106.5t-1 124v688h-147zM432 1925h277l184 -295h-168z" />
<glyph unicode="&#xda;" horiz-adv-x="1478" d="M31 1282v184h610v-184h-182v-696q0 -74 1 -108t13 -88t39 -97q76 -123 244 -123q63 0 133 31q94 39 141 190q14 53 14 215v676h-180v184h584v-184h-148v-651v-47v-53q0 -13 -1 -46.5t-4 -53.5l-7 -47q-4 -28 -10 -50.5t-16 -44.5q-70 -160 -218 -244q-55 -33 -146 -51.5 t-169 -18.5q-172 0 -299 70q-119 63 -194 203q-27 49 -41.5 115.5t-15.5 106.5t-1 124v688h-147zM586 1630l184 295h277l-293 -295h-168z" />
<glyph unicode="&#xdb;" horiz-adv-x="1478" d="M31 1282v184h610v-184h-182v-696q0 -74 1 -108t13 -88t39 -97q76 -123 244 -123q63 0 133 31q94 39 141 190q14 53 14 215v676h-180v184h584v-184h-148v-651v-47v-53q0 -13 -1 -46.5t-4 -53.5l-7 -47q-4 -28 -10 -50.5t-16 -44.5q-70 -160 -218 -244q-55 -33 -146 -51.5 t-169 -18.5q-172 0 -299 70q-119 63 -194 203q-27 49 -41.5 115.5t-15.5 106.5t-1 124v688h-147zM739 1812l-145 -182h-186l217 295h227l221 -295h-190z" />
<glyph unicode="&#xdc;" horiz-adv-x="1478" d="M31 1282v184h610v-184h-182v-696q0 -74 1 -108t13 -88t39 -97q76 -123 244 -123q63 0 133 31q94 39 141 190q14 53 14 215v676h-180v184h584v-184h-148v-651v-47v-53q0 -13 -1 -46.5t-4 -53.5l-7 -47q-4 -28 -10 -50.5t-16 -44.5q-70 -160 -218 -244q-55 -33 -146 -51.5 t-169 -18.5q-172 0 -299 70q-119 63 -194 203q-27 49 -41.5 115.5t-15.5 106.5t-1 124v688h-147zM408 1645v237h237v-237h-237zM834 1645v237h237v-237h-237z" />
<glyph unicode="&#xdd;" horiz-adv-x="1402" d="M31 1282v184h581v-184h-159l264 -471l274 471h-151v184h534v-184h-96l-438 -719v-379h204v-184h-686v184h201v379l-434 719h-94zM549 1630l184 295h277l-293 -295h-168z" />
<glyph unicode="&#xde;" horiz-adv-x="1290" d="M725 0h-668v184h172v1100h-172v182h625v-182h-172v-84h240q117 0 198.5 -23.5t151.5 -95.5q123 -129 123 -329q0 -236 -154 -369q-45 -39 -115.5 -58.5t-119 -22.5t-132.5 -3h-192v-115h215v-184zM651 1016h-141v-533h141q51 0 80 2t70 16.5t67 43.5q66 72 66 207 q0 141 -74 204q-31 29 -67.5 42.5t-62.5 15.5t-79 2z" />
<glyph unicode="&#xdf;" horiz-adv-x="1251" d="M547 0h-508v174h143v823q0 186 36 290t169 177q49 27 98 37q100 27 191 27q197 0 319.5 -94.5t122.5 -284.5q0 -141 -71 -229q-74 -88 -216 -111v-2q76 -4 144 -31q82 -33 119 -80q90 -109 90 -262q0 -201 -103.5 -314.5t-300.5 -117.5q-39 -2 -114 -2v174 q119 -4 177 64.5t58 191.5q0 137 -66.5 211t-203.5 70v198l51 2q164 27 164 236q0 92 -48 147.5t-139 55.5q-66 0 -118 -33t-70 -94q-16 -57 -16 -219v-830h92v-174z" />
<glyph unicode="&#xe0;" horiz-adv-x="1175" d="M758 0v174q-45 -98 -135.5 -148.5t-205 -50.5t-209.5 57.5t-114 141.5q-25 78 -24 141q0 152 106 246q39 35 116 63.5t132 30.5q20 0 74.5 5.5t83 5.5t80 -4.5t67.5 -4.5q8 76 0 136.5t-51 109.5t-123 49q-86 0 -131 -53t-43 -143h-270q4 188 125.5 274t318.5 86 q309 0 403 -213q18 -39 26.5 -102.5t8.5 -138.5v-490h142v-172h-377zM737 504h-129q-123 0 -194.5 -42t-71.5 -157q0 -66 39 -108.5t104 -42.5q238 0 252 350zM281 1548h276l184 -295h-168z" />
<glyph unicode="&#xe1;" horiz-adv-x="1175" d="M758 0v174q-45 -98 -135.5 -148.5t-205 -50.5t-209.5 57.5t-114 141.5q-25 78 -24 141q0 152 106 246q39 35 116 63.5t132 30.5q20 0 74.5 5.5t83 5.5t80 -4.5t67.5 -4.5q8 76 0 136.5t-51 109.5t-123 49q-86 0 -131 -53t-43 -143h-270q4 188 125.5 274t318.5 86 q309 0 403 -213q18 -39 26.5 -102.5t8.5 -138.5v-490h142v-172h-377zM737 504h-129q-123 0 -194.5 -42t-71.5 -157q0 -66 39 -108.5t104 -42.5q238 0 252 350zM434 1253l184 295h277l-293 -295h-168z" />
<glyph unicode="&#xe2;" horiz-adv-x="1175" d="M758 0v174q-45 -98 -135.5 -148.5t-205 -50.5t-209.5 57.5t-114 141.5q-25 78 -24 141q0 152 106 246q39 35 116 63.5t132 30.5q20 0 74.5 5.5t83 5.5t80 -4.5t67.5 -4.5q8 76 0 136.5t-51 109.5t-123 49q-86 0 -131 -53t-43 -143h-270q4 188 125.5 274t318.5 86 q309 0 403 -213q18 -39 26.5 -102.5t8.5 -138.5v-490h142v-172h-377zM737 504h-129q-123 0 -194.5 -42t-71.5 -157q0 -66 39 -108.5t104 -42.5q238 0 252 350zM588 1436l-146 -183h-186l217 295h227l222 -295h-191z" />
<glyph unicode="&#xe3;" horiz-adv-x="1175" d="M758 0v174q-45 -98 -135.5 -148.5t-205 -50.5t-209.5 57.5t-114 141.5q-25 78 -24 141q0 152 106 246q39 35 116 63.5t132 30.5q20 0 74.5 5.5t83 5.5t80 -4.5t67.5 -4.5q8 76 0 136.5t-51 109.5t-123 49q-86 0 -131 -53t-43 -143h-270q4 188 125.5 274t318.5 86 q309 0 403 -213q18 -39 26.5 -102.5t8.5 -138.5v-490h142v-172h-377zM737 504h-129q-123 0 -194.5 -42t-71.5 -157q0 -66 39 -108.5t104 -42.5q238 0 252 350zM831 1520h117q-4 -25 -8 -35q-43 -203 -221 -203q-35 0 -158 41q-104 35 -135 35q-41 0 -66 -35q-8 -8 -14 -29.5 t-8 -25.5h-113q0 8 4 23.5t4 23.5q2 4 11.5 28.5t13.5 36.5q25 55 74 91t106 36q68 0 162 -38.5t129 -38.5q39 0 68 20q2 2 6 7l7 9q3 4 5 8.5t6 14.5t6 14q0 4 2 8.5t2 8.5z" />
<glyph unicode="&#xe4;" horiz-adv-x="1175" d="M758 0v174q-45 -98 -135.5 -148.5t-205 -50.5t-209.5 57.5t-114 141.5q-25 78 -24 141q0 152 106 246q39 35 116 63.5t132 30.5q20 0 74.5 5.5t83 5.5t80 -4.5t67.5 -4.5q8 76 0 136.5t-51 109.5t-123 49q-86 0 -131 -53t-43 -143h-270q4 188 125.5 274t318.5 86 q309 0 403 -213q18 -39 26.5 -102.5t8.5 -138.5v-490h142v-172h-377zM737 504h-129q-123 0 -194.5 -42t-71.5 -157q0 -66 39 -108.5t104 -42.5q238 0 252 350zM256 1268v237h238v-237h-238zM682 1268v237h238v-237h-238z" />
<glyph unicode="&#xe5;" horiz-adv-x="1175" d="M758 0v174q-45 -98 -135.5 -148.5t-205 -50.5t-209.5 57.5t-114 141.5q-25 78 -24 141q0 152 106 246q39 35 116 63.5t132 30.5q20 0 74.5 5.5t83 5.5t80 -4.5t67.5 -4.5q8 76 0 136.5t-51 109.5t-123 49q-86 0 -131 -53t-43 -143h-270q4 188 125.5 274t318.5 86 q309 0 403 -213q18 -39 26.5 -102.5t8.5 -138.5v-490h142v-172h-377zM737 504h-129q-123 0 -194.5 -42t-71.5 -157q0 -66 39 -108.5t104 -42.5q238 0 252 350zM588 1223q-86 0 -149.5 62.5t-63.5 148.5t62.5 149.5t148.5 63.5q84 0 149.5 -60.5t65.5 -144.5 q0 -88 -62.5 -153.5t-150.5 -65.5zM588 1325q45 0 78.5 35t33.5 80q0 43 -35.5 76.5t-78.5 33.5q-45 0 -78 -34.5t-33 -79.5t34 -78t79 -33z" />
<glyph unicode="&#xe6;" horiz-adv-x="1705" d="M979 643h401q2 16 -4 90q-6 90 -49 157.5t-125 67.5q-100 0 -157.5 -74.5t-63.5 -178.5q-2 -21 -2 -62zM725 485h-143h-25h-23h-23q-15 0 -23.5 -2t-20.5 -4t-21.5 -6t-21.5 -10t-23 -14q-76 -53 -75 -146q0 -74 48 -119t124 -45q111 0 170 112.5t57 233.5zM612 643h113 v21q0 68 -3 101.5t-16.5 87.5t-50.5 79.5t-96 25.5q-76 0 -118 -26.5t-64 -95.5q0 -2 -6 -35q-4 -6 -4 -19h-258q18 182 129.5 258t302.5 76q266 0 329 -162q96 162 328 162q367 0 434 -389q12 -66 13 -186v-56h-670v-22q0 -133 52 -224.5t177 -91.5q72 0 120 53.5t52 127.5 h256q-8 -156 -133 -254.5t-282 -98.5q-141 0 -250 56.5t-154 179.5q-2 -6 -7 -19.5t-7 -19.5q-2 -4 -10.5 -19.5t-14.5 -21.5q-59 -92 -172 -129q-106 -27 -170 -27q-184 0 -285 109q-78 86 -77 244q0 92 56 169.5t144 108.5q100 37 342 37z" />
<glyph unicode="&#xe7;" horiz-adv-x="1062" d="M1024 680h-223q-4 106 -54.5 179t-150.5 73q-244 0 -244 -412q0 -88 20.5 -166t79 -139t148.5 -61q84 0 135 62.5t60 148.5h235q-8 -193 -132 -291.5t-323 -98.5q-252 0 -382 163t-130 421q0 229 125 404q47 68 131 110.5t195 42.5q229 0 301 -153v127h209v-410z M303 -385l39 80q119 -49 201 -35q4 2 11 5t10 4t8.5 3t8.5 4t7 7l8 8q4 4 8 10q18 49 -8.5 79t-77.5 30q-41 0 -72 -15q-4 0 -8 -4l-43 41l115 182h102l-84 -135q113 16 174 -20q68 -41 68 -113q0 -39 -21.5 -81t-54.5 -60q-78 -39 -162 -39q-27 0 -49 2t-48 8l-39 9 q-13 3 -47 15z" />
<glyph unicode="&#xe8;" d="M1073 489h-727q-2 -135 59.5 -235t190.5 -100q80 0 134 49t69 129h260q-8 -115 -82 -198t-177.5 -121t-218 -38t-227.5 52q-96 45 -166 137q-119 154 -118.5 391.5t132.5 399t367 161.5q246 0 383 -145q109 -115 121 -371q4 -74 2 -94q0 -2 -1 -8.5t-1 -8.5zM352 647h447 q-2 115 -52.5 207t-154.5 92q-213 0 -240 -299zM262 1548h277l184 -295h-168z" />
<glyph unicode="&#xe9;" d="M1073 489h-727q-2 -135 59.5 -235t190.5 -100q80 0 134 49t69 129h260q-8 -115 -82 -198t-177.5 -121t-218 -38t-227.5 52q-96 45 -166 137q-119 154 -118.5 391.5t132.5 399t367 161.5q246 0 383 -145q109 -115 121 -371q4 -74 2 -94q0 -2 -1 -8.5t-1 -8.5zM352 647h447 q-2 115 -52.5 207t-154.5 92q-213 0 -240 -299zM416 1253l184 295h277l-293 -295h-168z" />
<glyph unicode="&#xea;" d="M1073 489h-727q-2 -135 59.5 -235t190.5 -100q80 0 134 49t69 129h260q-8 -115 -82 -198t-177.5 -121t-218 -38t-227.5 52q-96 45 -166 137q-119 154 -118.5 391.5t132.5 399t367 161.5q246 0 383 -145q109 -115 121 -371q4 -74 2 -94q0 -2 -1 -8.5t-1 -8.5zM352 647h447 q-2 115 -52.5 207t-154.5 92q-213 0 -240 -299zM569 1436l-145 -183h-186l217 295h227l221 -295h-190z" />
<glyph unicode="&#xeb;" d="M1073 489h-727q-2 -135 59.5 -235t190.5 -100q80 0 134 49t69 129h260q-8 -115 -82 -198t-177.5 -121t-218 -38t-227.5 52q-96 45 -166 137q-119 154 -118.5 391.5t132.5 399t367 161.5q246 0 383 -145q109 -115 121 -371q4 -74 2 -94q0 -2 -1 -8.5t-1 -8.5zM352 647h447 q-2 115 -52.5 207t-154.5 92q-213 0 -240 -299zM238 1268v237h237v-237h-237zM664 1268v237h237v-237h-237z" />
<glyph unicode="&#xec;" horiz-adv-x="681" d="M621 0h-545v174h145v741h-145v175h418v-914h127v-176zM35 1548h276l185 -295h-168z" />
<glyph unicode="&#xed;" horiz-adv-x="681" d="M621 0h-545v174h145v741h-145v175h418v-914h127v-176zM188 1253l185 295h276l-293 -295h-168z" />
<glyph unicode="&#xee;" horiz-adv-x="681" d="M621 0h-545v174h145v741h-145v175h418v-914h127v-176zM342 1436l-145 -183h-187l217 295h228l221 -295h-191z" />
<glyph unicode="&#xef;" horiz-adv-x="681" d="M621 0h-545v174h145v741h-145v175h418v-914h127v-176zM10 1268v237h238v-237h-238zM436 1268v237h238v-237h-238z" />
<glyph unicode="&#xf0;" horiz-adv-x="1175" d="M590 936q-92 0 -150.5 -68.5t-78 -150.5t-19.5 -170q0 -156 51 -254q70 -137 201 -137q135 0 203 153q39 90 39 241.5t-50 250.5q-69 135 -196 135zM453 1415l198 113l90 -80l-176 -100q244 -174 348 -291q207 -231 207 -514q0 -244 -142 -406t-388 -162 q-115 0 -227.5 48.5t-180.5 132.5q-125 156 -125 397q0 254 144 408q33 35 78 63.5t75.5 41.5t77.5 30.5t60 21.5q47 18 -33 82q-10 8 -33 25q-29 20 -41 30l-190 -112l-84 76l188 108q-57 57 -195 121l138 80q82 -35 211 -113z" />
<glyph unicode="&#xf1;" horiz-adv-x="1290" d="M455 1090v-179q102 205 327 205q121 0 210 -62.5t110 -142.5q14 -57 14 -147v-590h135v-174h-534v174h127v490q0 102 -15 149q-14 51 -53 83t-92 32q-57 0 -98 -21.5t-62.5 -52.5t-33 -81t-14.5 -89t-3 -94v-416h131v-174h-547v174h144v741h-144v175h398zM889 1520h117 q-4 -25 -9 -35q-43 -203 -221 -203q-35 0 -158 41q-104 35 -135 35q-41 0 -65 -35q-8 -8 -14.5 -29.5t-8.5 -25.5h-112q0 8 4 23.5t4 23.5q2 4 11 28.5t13 36.5q25 55 74 91t107 36q68 0 162 -38.5t128 -38.5q39 0 68 20q2 2 6 7l7 9q3 4 5 8.5l6.5 14.5t6.5 14q0 4 2 8.5 t2 8.5z" />
<glyph unicode="&#xf2;" horiz-adv-x="1175" d="M590 936q-92 0 -150.5 -68.5t-78 -150.5t-19.5 -170q0 -156 51 -254q70 -137 201 -137q135 0 203 153q39 90 39 241.5t-50 250.5q-69 135 -196 135zM590 -25q-115 0 -227.5 48.5t-180.5 132.5q-125 156 -125 397q0 254 144 408q70 76 172 115.5t209 39.5 q256 0 397 -158.5t141 -414.5q0 -244 -142 -406t-388 -162zM281 1548h276l184 -295h-168z" />
<glyph unicode="&#xf3;" horiz-adv-x="1175" d="M590 936q-92 0 -150.5 -68.5t-78 -150.5t-19.5 -170q0 -156 51 -254q70 -137 201 -137q135 0 203 153q39 90 39 241.5t-50 250.5q-69 135 -196 135zM590 -25q-115 0 -227.5 48.5t-180.5 132.5q-125 156 -125 397q0 254 144 408q70 76 172 115.5t209 39.5 q256 0 397 -158.5t141 -414.5q0 -244 -142 -406t-388 -162zM434 1253l184 295h277l-293 -295h-168z" />
<glyph unicode="&#xf4;" horiz-adv-x="1175" d="M590 936q-92 0 -150.5 -68.5t-78 -150.5t-19.5 -170q0 -156 51 -254q70 -137 201 -137q135 0 203 153q39 90 39 241.5t-50 250.5q-69 135 -196 135zM590 -25q-115 0 -227.5 48.5t-180.5 132.5q-125 156 -125 397q0 254 144 408q70 76 172 115.5t209 39.5 q256 0 397 -158.5t141 -414.5q0 -244 -142 -406t-388 -162zM588 1436l-146 -183h-186l217 295h227l222 -295h-191z" />
<glyph unicode="&#xf5;" horiz-adv-x="1175" d="M590 936q-92 0 -150.5 -68.5t-78 -150.5t-19.5 -170q0 -156 51 -254q70 -137 201 -137q135 0 203 153q39 90 39 241.5t-50 250.5q-69 135 -196 135zM590 -25q-115 0 -227.5 48.5t-180.5 132.5q-125 156 -125 397q0 254 144 408q70 76 172 115.5t209 39.5 q256 0 397 -158.5t141 -414.5q0 -244 -142 -406t-388 -162zM831 1520h117q-4 -25 -8 -35q-43 -203 -221 -203q-35 0 -158 41q-104 35 -135 35q-41 0 -66 -35q-8 -8 -14 -29.5t-8 -25.5h-113q0 8 4 23.5t4 23.5q2 4 11.5 28.5t13.5 36.5q25 55 74 91t106 36q68 0 162 -38.5 t129 -38.5q39 0 68 20q2 2 6 7l7 9q3 4 5 8.5t6 14.5t6 14q0 4 2 8.5t2 8.5z" />
<glyph unicode="&#xf6;" horiz-adv-x="1175" d="M590 936q-92 0 -150.5 -68.5t-78 -150.5t-19.5 -170q0 -156 51 -254q70 -137 201 -137q135 0 203 153q39 90 39 241.5t-50 250.5q-69 135 -196 135zM590 -25q-115 0 -227.5 48.5t-180.5 132.5q-125 156 -125 397q0 254 144 408q70 76 172 115.5t209 39.5 q256 0 397 -158.5t141 -414.5q0 -244 -142 -406t-388 -162zM256 1268v237h238v-237h-238zM682 1268v237h238v-237h-238z" />
<glyph unicode="&#xf7;" horiz-adv-x="1351" d="M156 827h1040v-188h-1040v188zM815 213h-278v270h278v-270zM815 983h-278v270h278v-270z" />
<glyph unicode="&#xf8;" horiz-adv-x="1175" d="M362 365l402 466q-66 104 -176 105q-92 0 -150.5 -68.5t-78 -150.5t-19.5 -170q-1 -112 22 -182zM256 82l-125 -145l-86 61l135 158q-125 156 -125 397q0 254 144 408q70 76 172 115.5t209 39.5q201 0 338 -104l110 129l86 -68l-119 -137q123 -152 123 -393 q0 -244 -142 -406t-388 -162q-176 -4 -332 107zM813 723l-401 -463q68 -104 182 -104q133 0 201 153q39 90 39 242q-1 104 -21 172z" />
<glyph unicode="&#xf9;" horiz-adv-x="1290" d="M831 0v182q-41 -102 -127 -154.5t-198 -52.5q-119 0 -202 58.5t-111 148.5q-14 119 -15 193v540h-139v175h412v-650q0 -137 26 -190q37 -76 137 -76q117 0 174 139q25 63 25 236v366h-147v175h419v-916h144v-174h-398zM338 1548h276l185 -295h-168z" />
<glyph unicode="&#xfa;" horiz-adv-x="1290" d="M831 0v182q-41 -102 -127 -154.5t-198 -52.5q-119 0 -202 58.5t-111 148.5q-14 119 -15 193v540h-139v175h412v-650q0 -137 26 -190q37 -76 137 -76q117 0 174 139q25 63 25 236v366h-147v175h419v-916h144v-174h-398zM492 1253l184 295h276l-293 -295h-167z" />
<glyph unicode="&#xfb;" horiz-adv-x="1290" d="M831 0v182q-41 -102 -127 -154.5t-198 -52.5q-119 0 -202 58.5t-111 148.5q-14 119 -15 193v540h-139v175h412v-650q0 -137 26 -190q37 -76 137 -76q117 0 174 139q25 63 25 236v366h-147v175h419v-916h144v-174h-398zM645 1436l-145 -183h-187l217 295h228l221 -295 h-191z" />
<glyph unicode="&#xfc;" horiz-adv-x="1290" d="M831 0v182q-41 -102 -127 -154.5t-198 -52.5q-119 0 -202 58.5t-111 148.5q-14 119 -15 193v540h-139v175h412v-650q0 -137 26 -190q37 -76 137 -76q117 0 174 139q25 63 25 236v366h-147v175h419v-916h144v-174h-398zM313 1268v237h238v-237h-238zM739 1268v237h238 v-237h-238z" />
<glyph unicode="&#xfd;" horiz-adv-x="1214" d="M31 915v175h522v-175h-141l209 -575l10 -27l209 602h-135v175h483v-175h-86l-389 -983q-57 -150 -125 -220t-209 -70q-111 0 -164 10v188l111 -6q70 0 97.5 23.5t55.5 93.5l15 35l-375 929h-88zM455 1253l184 295h276l-292 -295h-168z" />
<glyph unicode="&#xfe;" horiz-adv-x="1290" d="M707 938q-63 0 -115.5 -38t-79.5 -93q-66 -125 -66 -266q0 -88 21.5 -169t81 -146.5t149.5 -65.5q70 0 120 34.5t76 93t37 118t11 124.5q0 70 -9 131.5t-31.5 129t-72.5 107.5t-122 40zM190 1354h-143v174h399v-623h5q102 211 317 211q123 0 211 -51t164 -160 q80 -119 80 -346q0 -131 -20.5 -219t-82.5 -188q-51 -82 -148.5 -129.5t-199.5 -47.5q-195 0 -309 189v-322h153v-174h-569v174h143v1512z" />
<glyph unicode="&#xff;" horiz-adv-x="1214" d="M31 915v175h522v-175h-141l209 -575l10 -27l209 602h-135v175h483v-175h-86l-389 -983q-57 -150 -125 -220t-209 -70q-111 0 -164 10v188l111 -6q70 0 97.5 23.5t55.5 93.5l15 35l-375 929h-88zM276 1268v237h238v-237h-238zM702 1268v237h238v-237h-238z" />
<glyph unicode="&#x152;" horiz-adv-x="2048" d="M1944 0h-912q-43 0 -132 -9t-134 -9q-195 0 -360 92q-168 94 -250 286q-68 160 -68 383q0 326 174 535q176 211 494 211q33 0 93 -5t85 -5l86 -4q27 0 110.5 -4.5t129.5 -4.5h684v-446h-224v262h-485v-446h184v184h185v-557h-185v188h-184v-467h485v279h224v-463z M975 180v1114q-111 12 -166 13q-86 0 -143.5 -18.5t-120.5 -71.5q-84 -70 -127 -208.5t-43 -269.5q0 -35 4 -104q10 -164 92 -297t229 -160q55 -10 97 -10q88 0 178 12z" />
<glyph unicode="&#x153;" horiz-adv-x="1744" d="M1690 477h-656q0 -57 10.5 -110.5t33 -105.5t67.5 -84t106 -32q76 0 118 46.5t46 121.5v15h258q-12 -168 -133 -260.5t-293 -92.5q-102 0 -188 45q-94 55 -137 117q-4 6 -8.5 16.5t-8.5 14.5q-14 -33 -57 -75t-80 -64q-39 -20 -105.5 -37t-111.5 -17q-207 0 -333 134.5 t-144 343.5q-8 66 -8 141q0 43 18 129q33 166 160 285q121 109 311 108q268 0 352 -203q14 27 47 76q127 127 308 127q115 0 198.5 -42t131.5 -117.5t71 -167t25 -199.5q0 -20 1 -57.5t1 -55.5zM569 946q-72 0 -121 -42t-70.5 -111.5t-29.5 -131t-8 -131.5q0 -61 10 -120.5 t33 -121t70 -99t112.5 -37.5t110.5 39.5t66.5 105t29.5 125t8 121.5q0 156 -35 254q-25 61 -71 105t-105 44zM1036 637h389q-2 51 -3 71.5t-6 67.5t-17.5 69.5t-31.5 51.5t-52 41t-78 12q-94 0 -143.5 -84t-55.5 -186q-2 -14 -2 -43z" />
<glyph unicode="&#x178;" horiz-adv-x="1402" d="M31 1282v184h581v-184h-159l264 -471l274 471h-151v184h534v-184h-96l-438 -719v-379h204v-184h-686v184h201v379l-434 719h-94zM371 1645v237h237v-237h-237zM797 1645v237h237v-237h-237z" />
<glyph unicode="&#x2c6;" horiz-adv-x="569" d="M285 1436l-146 -183h-186l217 295h227l221 -295h-190z" />
<glyph unicode="&#x2dc;" horiz-adv-x="569" d="M528 1520h117q-4 -25 -8 -35q-43 -203 -221 -203q-35 0 -158 41q-104 35 -135 35q-41 0 -66 -35q-8 -8 -14 -29.5t-8 -25.5h-113q0 8 4 23.5t4 23.5q2 4 11.5 28.5t13.5 36.5q25 55 74 91t106 36q68 0 162 -38.5t129 -38.5q39 0 68 20q2 2 6 7l7 9q3 4 5 8.5t6 14.5t6 14 q0 4 2 8.5t2 8.5z" />
<glyph unicode="&#x2000;" horiz-adv-x="1011" />
<glyph unicode="&#x2001;" horiz-adv-x="2023" />
<glyph unicode="&#x2002;" horiz-adv-x="1011" />
<glyph unicode="&#x2003;" horiz-adv-x="2023" />
<glyph unicode="&#x2004;" horiz-adv-x="673" />
<glyph unicode="&#x2005;" horiz-adv-x="505" />
<glyph unicode="&#x2006;" horiz-adv-x="335" />
<glyph unicode="&#x2007;" horiz-adv-x="335" />
<glyph unicode="&#x2008;" horiz-adv-x="251" />
<glyph unicode="&#x2009;" horiz-adv-x="403" />
<glyph unicode="&#x200a;" horiz-adv-x="110" />
<glyph unicode="&#x2010;" horiz-adv-x="757" d="M129 479v203h500v-203h-500z" />
<glyph unicode="&#x2011;" horiz-adv-x="757" d="M129 479v203h500v-203h-500z" />
<glyph unicode="&#x2012;" horiz-adv-x="757" d="M129 479v203h500v-203h-500z" />
<glyph unicode="&#x2013;" horiz-adv-x="1024" d="M0 479v203h1024v-203h-1024z" />
<glyph unicode="&#x2014;" horiz-adv-x="2048" d="M0 479v203h2048v-203h-2048z" />
<glyph unicode="&#x2018;" horiz-adv-x="569" d="M424 944h-279v270l97 277h184l-109 -277h107v-270z" />
<glyph unicode="&#x2019;" horiz-adv-x="569" d="M145 1491h279v-270l-96 -279h-187l111 279h-107v270z" />
<glyph unicode="&#x201a;" horiz-adv-x="409" d="M250 -274h-187l111 274h-106v270h278v-270z" />
<glyph unicode="&#x201c;" d="M483 944h-278v268l96 279h184l-108 -279h106v-268zM942 944h-278v268l98 279h180l-104 -279h104v-268z" />
<glyph unicode="&#x201d;" d="M664 1491h278v-270l-98 -279h-182l108 279h-106v270zM205 1491h278v-270l-96 -279h-186l110 279h-106v270z" />
<glyph unicode="&#x201e;" d="M662 270h278v-270l-98 -274h-183l109 274h-106v270zM203 270h278v-270l-96 -274h-186l110 274h-106v270z" />
<glyph unicode="&#x2022;" horiz-adv-x="1228" d="M940 1098v-731h-651v731h651z" />
<glyph unicode="&#x2026;" horiz-adv-x="2048" d="M481 0h-278v270h278v-270zM1165 0h-278v270h278v-270zM1849 0h-278v270h278v-270z" />
<glyph unicode="&#x202f;" horiz-adv-x="403" />
<glyph unicode="&#x2039;" horiz-adv-x="681" d="M303 135l-168 447l168 440h199l-168 -440l168 -447h-199z" />
<glyph unicode="&#x203a;" horiz-adv-x="681" d="M178 135l168 447l-168 440h199l168 -440l-168 -447h-199z" />
<glyph unicode="&#x205f;" horiz-adv-x="505" />
<glyph unicode="&#x2122;" horiz-adv-x="2007" d="M1733 1466v-833h-129v717l-289 -717h-78l-283 717v-717h-131v833h213l238 -587l250 587h209zM676 1466v-116h-264v-717h-146v717h-266v116h676z" />
<glyph unicode="&#xe000;" horiz-adv-x="1090" d="M0 1090h1090v-1090h-1090v1090z" />
<glyph unicode="&#xfb01;" horiz-adv-x="1327" d="M616 0h-553v174h146v741h-158v175h158q-4 127 20.5 205.5t112.5 140.5q133 92 367 92q182 0 303 -74t131 -244h-305q-14 70 -35 88q-33 49 -123 50q-123 0 -174 -84q-25 -39 -25 -154v-20h674v-916h135v-174h-534v174h127v741h-402v-741h135v-174z" />
<glyph unicode="&#xfb02;" horiz-adv-x="1327" d="M610 0h-547v174h146v741h-160v175h160v75q0 115 49 199q98 137 342 158q55 6 111 6l135 -6q125 -10 311 -47v-1301h135v-174h-536v174h129v1155q-76 8 -158 8q-49 0 -117 -10q-80 -16 -112 -86q-16 -37 -17 -135v-16h181v-175h-181v-741h129v-174z" />
<glyph unicode="&#xfb03;" horiz-adv-x="2123" d="M2063 0h-545v174h145v741h-145v175h418v-916h127v-174zM1663 1505h273v-250h-273v250zM928 915h-160v175h160v94q0 195 110 264q119 80 279 80q59 0 154 -27v-184q-74 12 -109 12q-90 0 -139 -55q-23 -31 -23 -144v-40h187v-175h-187v-741h180v-174h-600v174h148v741z M207 915h-160v175h160v94q0 195 110 264q119 80 279 80q59 0 154 -27v-184q-74 12 -109 12q-90 0 -139 -55q-23 -31 -23 -144v-40h187v-175h-187v-741h180v-174h-600v174h148v741z" />
<glyph unicode="&#xfb04;" horiz-adv-x="2123" d="M2060 0h-542v174h139v1143h-139v174h411v-1317h131v-174zM928 915h-160v175h160v94q0 195 110 264q119 80 279 80q59 0 154 -27v-184q-74 12 -109 12q-90 0 -139 -55q-23 -31 -23 -144v-40h187v-175h-187v-741h180v-174h-600v174h148v741zM207 915h-160v175h160v94 q0 195 110 264q119 80 279 80q59 0 154 -27v-184q-74 12 -109 12q-90 0 -139 -55q-23 -31 -23 -144v-40h187v-175h-187v-741h180v-174h-600v174h148v741z" />
</font>
</defs>
</svg>
